<?xml version="1.0" encoding="utf-8"?>
<!-- Generator: Adobe Illustrator 15.1.0, SVG Export Plug-In . SVG Version: 6.00 Build 0)  -->
<!DOCTYPE svg PUBLIC "-//W3C//DTD SVG 1.1//EN" "http://www.w3.org/Graphics/SVG/1.1/DTD/svg11.dtd">
<svg version="1.1" id="Layer_1" xmlns="http://www.w3.org/2000/svg" xmlns:xlink="http://www.w3.org/1999/xlink" x="0px" y="0px"
	 width="864px" height="864px" viewBox="0 0 864 864" enable-background="new 0 0 864 864" xml:space="preserve">
<g>
	<path fill="#00A651" d="M453.329,350.977c-2.819-12.682-13.561-21.171-26.267-22.377c-15.404-1.459-31.173,6.842-37.325,20.425
		c-9.977-5.672-24.614-5.157-34.252,0.832c-9.813,6.099-12.587,17.2-10.193,27.98c3.615,16.278,19.053,26.754,31.91,35.601
		c9.97,6.858,20.15,18.324,31.437,7.858c10.602-9.832,20.898-19.285,29.646-30.92C446.198,379.846,456.449,365,453.329,350.977z"/>
	<path fill="#00A651" d="M269.401,292.029c6.795-11.074,4.985-24.643-3.307-34.348c-10.051-11.762-27.154-16.771-41.02-11.292
		c-3.225-11.017-14.098-20.827-25.187-23.228c-11.292-2.448-21.008,3.602-26.787,13.007c-8.725,14.213-4.923,32.479-1.839,47.777
		c2.391,11.864,1.73,27.181,17.119,27.512c14.455,0.311,28.426,0.686,42.802-1.592C244.194,307.806,261.889,304.271,269.401,292.029
		z"/>
	<path fill="#00A651" d="M284.199,324.569c-1.095-8.279-7.496-14.317-15.566-15.802c-9.781-1.795-20.345,2.635-25.044,10.986
		c-6.07-4.188-15.473-4.681-21.979-1.385c-6.626,3.354-9.024,10.309-8.096,17.344c1.404,10.625,10.702,18.2,18.44,24.587
		c5.999,4.951,11.874,12.861,19.689,6.79c7.338-5.7,14.462-11.176,20.712-18.137C278.014,342.653,285.411,333.724,284.199,324.569z"
		/>
	<path fill="#00A651" d="M396.076,296.328c0.417-12.239-7.382-22.517-18.694-26.614c-13.537-4.901-29.638-1.198-38.531,9.422
		c-5.953-12.693-20.864-20.336-35.34-18.816c-11.965,1.258-22.006,9.361-24.543,21.341c-2.806,13.247,6.999,27.143,14.56,36.989
		c8.354,10.884,18.149,19.692,28.236,28.858c1.54,1.401,3.055,2.374,4.545,2.996c3.487,1.831,7.485,2.109,12.398-0.542
		c11.994-6.47,23.619-12.671,34.344-21.226C382.758,320.992,395.614,309.863,396.076,296.328z"/>
	<path fill="#00A651" d="M385.474,151.478c0.207,7.561,5.405,13.604,12.535,15.703c8.532,2.508,18.319-0.386,23.4-7.269
		c4.151,7.602,13.635,11.749,22.504,10.262c7.329-1.231,13.216-6.605,14.325-14.089c1.229-8.274-5.344-16.471-10.38-22.256
		c-5.564-6.393-11.936-11.454-18.503-16.724c-1.003-0.804-1.974-1.347-2.917-1.674c-2.219-0.997-4.694-1.016-7.623,0.807
		c-7.151,4.441-14.085,8.707-20.374,14.387C392.752,135.767,385.245,143.116,385.474,151.478z"/>
	<path fill="#00A651" d="M335.439,132.138c-4.035,7.073-6.607,14.458-9.305,22.085c-2.873,8.117,5.274,10.807,11.011,14.406
		c7.396,4.642,16.203,10.248,25.366,8.494c6.068-1.165,11.155-5.053,12.109-11.443c0.94-6.28-2.044-13.913-7.171-17.778
		c5.611-6.176,6.377-16.116,2.211-23.704c-3.438-6.258-10.181-9.893-17.321-8.527C344.444,117.179,339.093,125.737,335.439,132.138z
		"/>
	<path fill="#00A651" d="M412.256,281.253c-4.035,7.073-6.606,14.458-9.305,22.084c-2.873,8.117,5.274,10.805,11.011,14.406
		c7.396,4.643,16.203,10.248,25.365,8.494c6.068-1.165,11.156-5.052,12.109-11.443c0.941-6.28-2.044-13.913-7.17-17.779
		c5.611-6.176,6.377-16.115,2.211-23.704c-3.439-6.258-10.181-9.896-17.322-8.527C421.261,266.291,415.908,274.851,412.256,281.253z
		"/>
	<path fill="#00A651" d="M236.237,173.577c-8.682,4.849-16.029,10.947-23.663,17.214c-8.125,6.674-1.305,14.626,2.42,22.005
		c4.802,9.521,10.471,20.934,21.159,24.888c7.075,2.61,14.846,1.754,19.878-4.323c4.942-5.969,6.64-15.834,3.72-23.109
		c9.762-2.91,16.835-12.822,17.268-23.382c0.355-8.714-4.399-16.768-12.727-19.846C255.089,163.623,244.095,169.19,236.237,173.577z
		"/>
	<path fill="#00A651" d="M301.771,232.57c9.621,2.514,19.145,3.205,28.992,3.97c10.482,0.815,11.07-9.645,13.496-17.547
		c3.131-10.19,6.947-22.352,1.976-32.603c-3.293-6.787-9.491-11.553-17.33-10.653c-7.701,0.884-15.756,6.82-18.691,14.089
		c-9.056-4.659-21.022-2.412-28.647,4.903c-6.293,6.041-8.442,15.144-4.568,23.128C281.278,226.692,293.065,230.291,301.771,232.57z
		"/>
	<path fill="#00A651" d="M416.992,193.968c-5.785-6.831-15.056-8.568-23.194-5.231c-9.739,3.992-16.64,13.904-16.24,24.026
		c-9.459-3.954-21.286-0.771-28.38,7.162c-5.859,6.558-7.32,15.878-2.81,23.613c4.985,8.549,17.119,11.258,26.051,12.883
		c9.868,1.787,19.498,1.751,29.461,1.757c1.521,0.003,2.819-0.215,3.935-0.608c2.786-0.722,5.088-2.533,6.445-6.382
		c3.318-9.395,6.568-18.461,8.177-28.36C421.892,213.864,423.388,201.526,416.992,193.968z"/>
	<path fill="#00A651" d="M470.01,178.494c-3.305-3.902-8.597-4.896-13.244-2.99c-5.56,2.28-9.499,7.941-9.271,13.717
		c-5.399-2.258-12.153-0.438-16.204,4.091c-3.345,3.742-4.178,9.064-1.604,13.481c2.846,4.881,9.773,6.426,14.872,7.354
		c5.637,1.021,11.132,1,16.82,1.005c0.87,0.003,1.611-0.124,2.247-0.347c1.592-0.413,2.905-1.448,3.682-3.646
		c1.892-5.364,3.75-10.54,4.667-16.193C472.807,189.852,473.66,182.806,470.01,178.494z"/>
	<path fill="#00A651" d="M456.575,273.648c-2.745,4.81-4.49,9.83-6.324,15.011c-1.952,5.518,3.585,7.343,7.483,9.791
		c5.028,3.156,11.014,6.963,17.242,5.774c4.122-0.793,7.58-3.433,8.227-7.778c0.639-4.268-1.388-9.458-4.873-12.084
		c3.816-4.196,4.337-10.95,1.503-16.11c-2.335-4.254-6.919-6.724-11.773-5.793C462.696,263.482,459.057,269.3,456.575,273.648z"/>
	<path fill="#00A651" d="M455.56,232.994c-3.901-3.926-8.276-6.944-12.784-10.094c-4.799-3.348-8.032,1.503-11.428,4.609
		c-4.381,4.006-9.644,8.761-10.154,15.083c-0.335,4.185,1.293,8.222,5.307,10.006c3.942,1.748,9.484,1.175,12.947-1.484
		c3.028,4.791,9.402,7.093,15.127,5.735c4.722-1.118,8.323-4.879,8.72-9.808C463.734,241.599,459.095,236.543,455.56,232.994z"/>
	<path fill="#00A651" d="M451.127,462.422c2.241-5.713,0.275-11.875-4.384-15.702c-5.649-4.642-14.019-5.554-20.016-1.858
		c-2.412-4.854-8.282-8.52-13.639-8.721c-5.456-0.2-9.475,3.415-11.384,8.271c-2.881,7.332,0.398,15.513,3.099,22.377
		c2.094,5.316,3.055,12.5,10.24,11.38c6.751-1.052,13.283-2.035,19.781-4.284C440.708,471.85,448.644,468.741,451.127,462.422z"/>
	<path fill="#00A651" d="M520.936,575.195c6.796-11.077,4.983-24.643-3.304-34.349c-10.053-11.763-27.154-16.769-41.022-11.292
		c-3.222-11.014-14.095-20.826-25.186-23.228c-11.291-2.444-21.008,3.599-26.786,13.01c-8.726,14.211-4.923,32.474-1.839,47.774
		c2.39,11.861,1.73,27.181,17.119,27.515c14.455,0.311,28.426,0.683,42.801-1.592C495.731,590.972,513.425,587.439,520.936,575.195z
		"/>
	<path fill="#00A651" d="M552.129,534.685c-11.424,4.416-17.82,15.62-17.156,27.636c0.801,14.372,10.518,27.734,23.778,31.749
		c-9.346,10.454-10.529,27.168-3.453,39.888c5.849,10.513,17.236,16.576,29.258,14.211c13.282-2.613,22.22-17.082,28.315-27.897
		c6.734-11.952,11-24.417,15.474-37.289c0.686-1.966,0.986-3.742,0.975-5.358c0.319-3.926-0.996-7.712-5.363-11.192
		c-10.652-8.494-20.915-16.76-32.991-23.271C580.04,537.268,564.759,529.803,552.129,534.685z"/>
	<path fill="#00A651" d="M487.771,449.215c-8.682,4.846-16.027,10.944-23.663,17.214c-8.125,6.671-1.302,14.623,2.421,22.005
		c4.802,9.519,10.474,20.931,21.156,24.882c7.076,2.613,14.85,1.76,19.88-4.32c4.945-5.972,6.642-15.831,3.723-23.108
		c9.761-2.91,16.834-12.822,17.264-23.382c0.357-8.712-4.395-16.769-12.724-19.844C506.624,439.258,495.632,444.825,487.771,449.215
		z"/>
	<path fill="#00A651" d="M553.308,515.736c9.62,2.516,19.144,3.204,28.99,3.973c10.484,0.813,11.068-9.646,13.497-17.55
		c3.13-10.19,6.946-22.353,1.977-32.601c-3.296-6.787-9.494-11.553-17.332-10.655c-7.699,0.884-15.758,6.82-18.69,14.092
		c-9.056-4.661-21.022-2.415-28.648,4.903c-6.289,6.039-8.442,15.142-4.565,23.126C532.813,509.857,544.601,513.453,553.308,515.736
		z"/>
	<path fill="#00A651" d="M537.489,608.175c-5.785-6.834-15.059-8.568-23.194-5.234c-9.742,3.995-16.642,13.905-16.239,24.026
		c-9.461-3.954-21.29-0.771-28.382,7.164c-5.859,6.559-7.319,15.879-2.809,23.61c4.983,8.549,17.114,11.259,26.047,12.883
		c9.868,1.79,19.502,1.751,29.464,1.76c1.522,0.003,2.819-0.218,3.935-0.608c2.786-0.722,5.088-2.533,6.445-6.386
		c3.318-9.392,6.569-18.458,8.175-28.356C542.385,628.07,543.883,615.73,537.489,608.175z"/>
	<path fill="#00A651" d="M452.751,612.646c-3.356-3.959-8.733-4.967-13.456-3.034c-5.646,2.315-9.651,8.067-9.419,13.938
		c-5.486-2.296-12.346-0.446-16.462,4.155c-3.399,3.805-4.246,9.212-1.63,13.695c2.891,4.958,9.93,6.53,15.111,7.475
		c5.724,1.035,11.311,1.014,17.09,1.02c0.881,0,1.636-0.124,2.28-0.353c1.618-0.419,2.951-1.471,3.741-3.704
		c1.925-5.448,3.809-10.707,4.741-16.451C455.593,624.191,456.457,617.032,452.751,612.646z"/>
	<path fill="#00A651" d="M545.826,725.675c4.086-6.663,2.996-14.821-1.99-20.658c-6.047-7.076-16.331-10.088-24.674-6.792
		c-1.938-6.625-8.478-12.525-15.146-13.971c-6.793-1.471-12.636,2.166-16.11,7.824c-5.248,8.547-2.963,19.533-1.106,28.734
		c1.437,7.135,1.04,16.35,10.297,16.548c8.692,0.188,17.096,0.41,25.744-0.958C530.663,735.166,541.306,733.041,545.826,725.675z"/>
</g>
<g>
	<path fill="#C2E6E8" d="M397.601,492.561c-2.822-12.685-13.562-21.171-26.269-22.377c-15.404-1.459-31.172,6.843-37.325,20.422
		c-9.977-5.669-24.614-5.154-34.252,0.832c-9.813,6.099-12.587,17.203-10.193,27.982c3.615,16.278,19.054,26.755,31.911,35.599
		c9.97,6.861,20.152,18.326,31.435,7.86c10.604-9.832,20.899-19.284,29.646-30.92C390.467,521.43,400.719,506.584,397.601,492.561z"
		/>
	<path fill="#C2E6E8" d="M609.804,287.511c6.795-11.074,4.983-24.643-3.307-34.351c-10.053-11.76-27.156-16.768-41.022-11.289
		c-3.222-11.016-14.098-20.829-25.186-23.228c-11.291-2.448-21.005,3.602-26.785,13.007c-8.725,14.21-4.926,32.479-1.839,47.776
		c2.39,11.864,1.729,27.179,17.118,27.512c14.455,0.311,28.426,0.683,42.804-1.591C584.597,303.288,602.29,299.753,609.804,287.511z
		"/>
	<path fill="#C2E6E8" d="M624.601,320.051c-1.096-8.282-7.495-14.318-15.567-15.802c-9.78-1.795-20.343,2.635-25.045,10.986
		c-6.068-4.19-15.472-4.681-21.978-1.388c-6.625,3.356-9.025,10.312-8.095,17.344c1.404,10.628,10.699,18.203,18.439,24.587
		c5.999,4.951,11.875,12.864,19.689,6.792c7.34-5.699,14.46-11.176,20.713-18.136C618.416,338.135,625.812,329.206,624.601,320.051z
		"/>
	<path fill="#C2E6E8" d="M260.517,410.802c0.419-12.241-7.381-22.52-18.694-26.617c-13.537-4.901-29.637-1.198-38.531,9.422
		c-5.953-12.696-20.864-20.336-35.339-18.816c-11.965,1.258-22.006,9.361-24.544,21.341c-2.806,13.247,7,27.143,14.56,36.989
		c8.355,10.884,18.149,19.691,28.236,28.857c1.541,1.399,3.055,2.371,4.547,2.996c3.486,1.831,7.482,2.109,12.397-0.545
		c11.994-6.471,23.618-12.668,34.344-21.223C247.199,435.464,260.056,424.335,260.517,410.802z"/>
	<path fill="#C2E6E8" d="M260.458,383.434c0.208,7.561,5.406,13.604,12.536,15.702c8.533,2.508,18.32-0.385,23.401-7.271
		c4.152,7.604,13.635,11.751,22.503,10.265c7.328-1.231,13.215-6.605,14.323-14.089c1.229-8.274-5.344-16.471-10.377-22.255
		c-5.563-6.394-11.936-11.454-18.504-16.724c-1.003-0.804-1.974-1.346-2.916-1.671c-2.219-0.999-4.696-1.019-7.625,0.804
		c-7.148,4.441-14.081,8.706-20.371,14.386C267.737,367.723,260.229,375.071,260.458,383.434z"/>
	<path fill="#C2E6E8" d="M614.088,190.881c-4.036,7.071-6.608,14.458-9.307,22.085c-2.871,8.117,5.275,10.807,11.009,14.406
		c7.4,4.639,16.206,10.245,25.369,8.491c6.068-1.162,11.154-5.05,12.109-11.443c0.937-6.278-2.049-13.913-7.17-17.779
		c5.608-6.173,6.377-16.115,2.208-23.701c-3.438-6.259-10.179-9.896-17.321-8.527C623.092,175.919,617.739,184.48,614.088,190.881z"
		/>
	<path fill="#C2E6E8" d="M547.814,397.23c-4.037,7.073-6.608,14.458-9.307,22.085c-2.872,8.117,5.275,10.804,11.011,14.405
		c7.398,4.643,16.204,10.246,25.367,8.492c6.068-1.162,11.156-5.051,12.109-11.443c0.938-6.278-2.046-13.91-7.17-17.776
		c5.611-6.176,6.377-16.116,2.208-23.704c-3.437-6.261-10.18-9.896-17.318-8.53C556.817,382.269,551.465,390.829,547.814,397.23z"/>
	<path fill="#C2E6E8" d="M501.326,125.379c-8.679,4.849-16.027,10.947-23.662,17.214c-8.123,6.674-1.303,14.623,2.423,22.005
		c4.802,9.521,10.471,20.934,21.157,24.888c7.076,2.61,14.846,1.754,19.879-4.323c4.942-5.969,6.639-15.834,3.72-23.109
		c9.761-2.913,16.837-12.82,17.267-23.382c0.355-8.714-4.397-16.768-12.727-19.843C520.182,115.425,509.185,120.993,501.326,125.379
		z"/>
	<path fill="#C2E6E8" d="M557.825,203.952c9.62,2.514,19.142,3.205,28.993,3.973c10.479,0.813,11.068-9.645,13.494-17.55
		c3.131-10.19,6.947-22.352,1.978-32.6c-3.296-6.787-9.491-11.553-17.333-10.653c-7.698,0.881-15.755,6.82-18.689,14.086
		c-9.056-4.659-21.022-2.412-28.646,4.904c-6.294,6.041-8.444,15.144-4.567,23.128C537.335,198.073,549.119,201.672,557.825,203.952
		z"/>
	<path fill="#C2E6E8" d="M532.968,326.513c-5.784-6.831-15.056-8.565-23.191-5.234c-9.738,3.995-16.642,13.907-16.242,24.028
		c-9.458-3.954-21.283-0.771-28.379,7.165c-5.862,6.556-7.321,15.876-2.812,23.61c4.986,8.549,17.121,11.258,26.053,12.883
		c9.868,1.79,19.499,1.751,29.461,1.759c1.522,0,2.819-0.214,3.935-0.608c2.786-0.724,5.086-2.536,6.445-6.385
		c3.318-9.395,6.57-18.458,8.178-28.359C537.869,346.412,539.367,334.071,532.968,326.513z"/>
	<path fill="#C2E6E8" d="M197.388,323.087c-3.304-3.901-8.597-4.893-13.245-2.99c-5.559,2.282-9.498,7.94-9.271,13.72
		c-5.401-2.258-12.153-0.44-16.202,4.092c-3.347,3.742-4.18,9.061-1.605,13.478c2.845,4.882,9.774,6.429,14.874,7.357
		c5.633,1.021,11.13,1,16.82,1.005c0.869,0,1.609-0.124,2.246-0.35c1.591-0.41,2.906-1.445,3.681-3.645
		c1.893-5.361,3.749-10.538,4.667-16.19C200.184,334.448,201.038,327.399,197.388,323.087z"/>
	<path fill="#C2E6E8" d="M132.803,293.054c-2.742,4.808-4.491,9.827-6.324,15.012c-1.952,5.515,3.586,7.343,7.483,9.788
		c5.028,3.155,11.014,6.963,17.24,5.771c4.124-0.788,7.583-3.431,8.231-7.775c0.637-4.268-1.389-9.455-4.875-12.082
		c3.813-4.196,4.335-10.953,1.502-16.11c-2.336-4.257-6.919-6.724-11.773-5.799C138.923,282.886,135.287,288.701,132.803,293.054z"
		/>
	<path fill="#C2E6E8" d="M500.748,217.934c-3.904-3.926-8.276-6.947-12.787-10.094c-4.796-3.348-8.034,1.501-11.429,4.606
		c-4.378,4.006-9.646,8.764-10.151,15.083c-0.336,4.188,1.291,8.222,5.308,10.006c3.94,1.751,9.483,1.178,12.941-1.484
		c3.031,4.793,9.405,7.093,15.13,5.735c4.722-1.118,8.323-4.879,8.72-9.805C508.92,226.538,504.28,221.482,500.748,217.934z"/>
	<path fill="#C2E6E8" d="M497.818,418.743c2.244-5.713,0.278-11.875-4.383-15.703c-5.647-4.642-14.021-5.554-20.018-1.858
		c-2.412-4.854-8.282-8.519-13.638-8.72c-5.454-0.201-9.474,3.414-11.385,8.271c-2.88,7.332,0.401,15.512,3.101,22.376
		c2.095,5.32,3.056,12.498,10.242,11.377c6.751-1.052,13.279-2.032,19.777-4.281C487.399,428.167,495.335,425.062,497.818,418.743z"
		/>
	<path fill="#C2E6E8" d="M478.763,719.791c6.798-11.076,4.986-24.643-3.308-34.348c-10.05-11.766-27.153-16.771-41.02-11.292
		c-3.223-11.014-14.096-20.826-25.187-23.23c-11.289-2.442-21.005,3.602-26.783,13.01c-8.726,14.213-4.926,32.477-1.841,47.776
		c2.39,11.862,1.73,27.182,17.119,27.512c14.454,0.314,28.426,0.686,42.804-1.591C453.555,735.565,471.248,732.035,478.763,719.791z
		"/>
	<path fill="#C2E6E8" d="M665.092,301.223c-11.421,4.414-17.82,15.623-17.154,27.633c0.802,14.378,10.519,27.737,23.781,31.752
		c-9.348,10.455-10.531,27.167-3.458,39.888c5.851,10.512,17.239,16.575,29.257,14.21c13.285-2.613,22.223-17.082,28.319-27.897
		c6.734-11.953,10.999-24.417,15.474-37.292c0.683-1.963,0.985-3.739,0.975-5.355c0.316-3.926-0.997-7.712-5.363-11.193
		c-10.653-8.494-20.915-16.76-32.991-23.271C693.005,303.806,677.722,296.341,665.092,301.223z"/>
	<path fill="#C2E6E8" d="M316.065,414.571c-8.683,4.846-16.03,10.945-23.664,17.214c-8.124,6.672-1.302,14.623,2.422,22.006
		c4.802,9.518,10.472,20.931,21.158,24.882c7.073,2.612,14.846,1.759,19.879-4.32c4.941-5.972,6.638-15.832,3.72-23.106
		c9.759-2.913,16.835-12.822,17.266-23.381c0.354-8.714-4.398-16.771-12.725-19.847
		C334.917,404.615,323.923,410.183,316.065,414.571z"/>
	<path fill="#C2E6E8" d="M643.682,288.299c9.62,2.517,19.141,3.205,28.987,3.973c10.484,0.812,11.074-9.645,13.497-17.55
		c3.131-10.19,6.949-22.352,1.977-32.6c-3.293-6.787-9.49-11.553-17.329-10.655c-7.704,0.884-15.758,6.823-18.69,14.092
		c-9.059-4.662-21.024-2.415-28.651,4.904c-6.289,6.041-8.442,15.141-4.565,23.128C623.186,282.42,634.975,286.019,643.682,288.299z
		"/>
	<path fill="#C2E6E8" d="M677.564,483.158c-5.785-6.831-15.056-8.566-23.194-5.234c-9.736,3.995-16.639,13.91-16.239,24.028
		c-9.458-3.951-21.287-0.771-28.377,7.165c-5.864,6.556-7.324,15.875-2.813,23.609c4.983,8.55,17.12,11.259,26.05,12.881
		c9.868,1.792,19.499,1.754,29.464,1.762c1.52,0,2.819-0.215,3.932-0.608c2.786-0.724,5.088-2.533,6.448-6.385
		c3.315-9.395,6.569-18.459,8.178-28.36C682.465,503.057,683.963,490.713,677.564,483.158z"/>
	<path fill="#C2E6E8" d="M642.53,367.139c-3.354-3.965-8.733-4.97-13.453-3.034c-5.649,2.313-9.653,8.062-9.419,13.935
		c-5.487-2.293-12.349-0.446-16.463,4.155c-3.397,3.802-4.245,9.21-1.63,13.695c2.892,4.959,9.929,6.531,15.11,7.473
		c5.725,1.038,11.312,1.013,17.091,1.019c0.881,0.003,1.633-0.121,2.282-0.352c1.613-0.419,2.952-1.471,3.739-3.704
		c1.922-5.446,3.811-10.708,4.741-16.449C645.372,378.681,646.242,371.522,642.53,367.139z"/>
	<path fill="#C2E6E8" d="M669.332,460.583c4.089-6.663,2.998-14.821-1.988-20.659c-6.047-7.073-16.33-10.085-24.673-6.792
		c-1.936-6.622-8.478-12.525-15.146-13.971c-6.79-1.47-12.638,2.167-16.11,7.825c-5.247,8.549-2.959,19.532-1.106,28.734
		c1.44,7.137,1.041,16.35,10.295,16.548c8.695,0.187,17.099,0.41,25.744-0.956C654.172,470.074,664.813,467.948,669.332,460.583z"/>
	<path fill="#C2E6E8" d="M704.881,521.317c11.654,5.74,24.998,2.682,33.894-6.471c10.782-11.097,14.183-28.589,7.448-41.89
		c10.666-4.229,19.434-15.965,20.796-27.229c1.391-11.468-5.531-20.584-15.433-25.469c-14.956-7.371-32.793-1.895-47.74,2.594
		c-11.59,3.478-26.903,4.237-25.808,19.588c1.024,14.424,1.949,28.37,5.545,42.473C686.838,497.68,691.992,514.971,704.881,521.317z
		"/>
	<path fill="#C2E6E8" d="M290.224,473.684c-1.095-8.282-7.496-14.317-15.566-15.805c-9.781-1.795-20.343,2.638-25.044,10.989
		c-6.07-4.191-15.473-4.681-21.979-1.388c-6.625,3.356-9.024,10.312-8.095,17.343c1.403,10.629,10.701,18.203,18.439,24.588
		c6,4.951,11.874,12.864,19.689,6.793c7.339-5.699,14.462-11.176,20.712-18.137C284.04,491.768,291.437,482.839,290.224,473.684z"/>
	<path fill="#C2E6E8" d="M174.275,487.604c-4.035,7.07-6.605,14.458-9.304,22.085c-2.874,8.117,5.274,10.805,11.009,14.403
		c7.397,4.642,16.204,10.245,25.367,8.491c6.067-1.159,11.154-5.05,12.111-11.443c0.938-6.274-2.047-13.91-7.172-17.775
		c5.611-6.174,6.378-16.116,2.209-23.701c-3.438-6.262-10.179-9.896-17.32-8.53C183.28,472.643,177.93,481.203,174.275,487.604z"/>
	<path fill="#C2E6E8" d="M158.612,497.294c5.392-8.354,9.017-17.187,12.818-26.304c4.042-9.708-5.712-13.527-12.462-18.296
		c-8.708-6.153-19.073-13.573-30.36-12.049c-7.477,1.014-13.936,5.416-15.529,13.146c-1.561,7.591,1.565,17.098,7.557,22.15
		c-7.252,7.153-8.848,19.221-4.276,28.751c3.775,7.86,11.751,12.742,20.55,11.55C146.635,514.932,153.73,504.857,158.612,497.294z"
		/>
	<path fill="#C2E6E8" d="M205.67,615.725c-7.665,9.552-7.577,22.454-0.975,32.512c7.905,12.032,23.013,18.715,36.499,15.535
		c-2.842,13.733,4.518,28.786,17.021,36.239c10.335,6.159,23.229,5.687,32.439-2.384c10.179-8.924,10.653-25.926,10.501-38.338
		c-0.172-13.721-2.737-26.643-5.324-40.023c-0.394-2.043-1.025-3.729-1.845-5.124c-1.696-3.555-4.73-6.168-10.253-6.991
		c-13.48-2.001-26.501-4.003-40.213-3.579C231.11,603.957,214.146,605.168,205.67,615.725z"/>
	<path fill="#C2E6E8" d="M203.869,585.021c9.619,2.514,19.142,3.205,28.991,3.974c10.482,0.812,11.071-9.648,13.496-17.55
		c3.129-10.19,6.948-22.353,1.976-32.601c-3.293-6.787-9.491-11.553-17.33-10.655c-7.701,0.884-15.756,6.82-18.69,14.089
		c-9.057-4.661-21.023-2.412-28.65,4.903c-6.292,6.039-8.44,15.142-4.565,23.129C183.376,579.144,195.163,582.739,203.869,585.021z"
		/>
	<path fill="#C2E6E8" d="M132.214,343.617c-4.073-1.773-8.582-0.512-11.472,2.756c-3.459,3.913-4.358,9.838-1.959,14.254
		c-5.079,0.312-9.645,4.326-11.062,9.411c-1.172,4.202,0.223,8.673,3.926,11.124c4.093,2.715,10.089,1.258,14.419,0.025
		c4.784-1.368,9.063-3.497,13.498-5.68c0.678-0.331,1.209-0.713,1.616-1.134c1.083-0.928,1.71-2.241,1.472-4.251
		c-0.583-4.909-1.125-9.659-2.58-14.417C138.756,351.398,136.717,345.577,132.214,343.617z"/>
	<path fill="#C2E6E8" d="M299.973,560.748c-3.356-3.965-8.734-4.97-13.454-3.034c-5.651,2.315-9.654,8.062-9.419,13.938
		c-5.489-2.296-12.349-0.449-16.462,4.152c-3.4,3.802-4.247,9.21-1.63,13.695c2.89,4.961,9.93,6.533,15.111,7.476
		c5.723,1.035,11.31,1.013,17.089,1.019c0.882,0,1.635-0.124,2.281-0.355c1.616-0.416,2.952-1.468,3.74-3.703
		c1.925-5.446,3.811-10.705,4.743-16.449C302.813,572.29,303.682,565.132,299.973,560.748z"/>
	<path fill="#C2E6E8" d="M414.104,567.282c-6.157-10.488-18.163-14.971-29.829-12.398c-13.965,3.078-25.51,14.738-27.325,28.384
		c-11.743-7.494-28.313-5.985-39.651,2.982c-9.37,7.415-13.493,19.552-9.253,30.95c4.681,12.603,20.294,19.054,31.871,23.302
		c12.791,4.689,25.69,6.881,39.023,9.205c2.036,0.357,3.825,0.371,5.406,0.102c3.897-0.313,7.401-2.205,10.116-7.043
		c6.623-11.801,13.084-23.181,17.538-36.059C416.029,595.055,420.905,578.882,414.104,567.282z"/>
	<path fill="#C2E6E8" d="M670.948,568.876c-3.901-3.924-8.274-6.941-12.784-10.091c-4.799-3.352-8.034,1.5-11.432,4.609
		c-4.378,4.006-9.643,8.761-10.152,15.08c-0.333,4.188,1.292,8.222,5.309,10.006c3.94,1.751,9.485,1.175,12.943-1.481
		c3.029,4.791,9.403,7.09,15.128,5.735c4.725-1.124,8.323-4.882,8.723-9.808C679.123,577.48,674.48,572.428,670.948,568.876z"/>
	<path fill="#C2E6E8" d="M561.416,699.956c8.059,2.957,16.185,4.337,24.582,5.804c8.94,1.564,10.306-7.373,13.046-13.962
		c3.526-8.503,7.809-18.638,4.383-27.851c-2.274-6.102-7.202-10.708-14.015-10.584c-6.686,0.124-14.1,4.563-17.22,10.567
		c-7.398-4.749-17.863-3.808-25.017,1.854c-5.906,4.667-8.503,12.31-5.832,19.493C544.295,693.216,554.125,697.279,561.416,699.956z
		"/>
	<path fill="#C2E6E8" d="M354.296,650.561c-6.848-4.73-15.588-4.039-22.085,0.922c-7.774,5.945-11.568,16.513-8.754,25.497
		c-9.449-1.256-19.292,4.468-23.737,13.301c-3.673,7.308-2.726,16.025,3.197,21.876c6.543,6.465,18.091,5.958,26.5,5.251
		c9.289-0.785,17.924-3.15,26.866-5.557c1.367-0.366,2.479-0.876,3.382-1.501c2.328-1.321,3.954-3.508,4.243-7.291
		c0.702-9.231,1.423-18.158,0.468-27.435C363.51,667.234,361.865,655.795,354.296,650.561z"/>
	<path fill="#C2E6E8" d="M140.376,429.918c3.344-2.929,4.126-7.544,2.404-11.55c-2.063-4.799-7.036-8.139-12.056-7.858
		c1.883-4.725,0.204-10.565-3.789-14.018c-3.303-2.853-7.941-3.5-11.738-1.195c-4.202,2.539-5.445,8.585-6.174,13.026
		c-0.806,4.912-0.704,9.692-0.626,14.634c0.011,0.752,0.129,1.396,0.336,1.944c0.38,1.377,1.298,2.506,3.219,3.145
		c4.689,1.569,9.215,3.106,14.139,3.822C130.547,432.512,136.683,433.154,140.376,429.918z"/>
	<path fill="#C2E6E8" d="M724.449,305.314c3.408-2.85,4.298-7.445,2.67-11.493c-1.949-4.843-6.848-8.301-11.872-8.133
		c1.993-4.681,0.451-10.559-3.461-14.103c-3.235-2.927-7.855-3.682-11.71-1.468c-4.257,2.445-5.639,8.458-6.474,12.883
		c-0.917,4.893-0.928,9.67-0.964,14.612c-0.008,0.754,0.097,1.401,0.289,1.952c0.35,1.388,1.242,2.533,3.147,3.222
		c4.65,1.674,9.139,3.318,14.045,4.146C714.559,307.683,720.68,308.464,724.449,305.314z"/>
	<path fill="#C2E6E8" d="M651.309,604.508c-5.926-2.583-12.484-0.746-16.691,4.009c-5.03,5.693-6.338,14.312-2.847,20.738
		c-7.391,0.457-14.031,6.294-16.094,13.689c-1.702,6.115,0.325,12.616,5.713,16.185c5.953,3.948,14.676,1.834,20.979,0.036
		c6.958-1.991,13.181-5.091,19.634-8.261c0.988-0.487,1.763-1.038,2.354-1.651c1.575-1.355,2.486-3.263,2.14-6.188
		c-0.849-7.142-1.636-14.05-3.753-20.972C660.826,615.829,657.861,607.357,651.309,604.508z"/>
	<path fill="#C2E6E8" d="M162.337,524.362c-4.074-1.776-8.581-0.515-11.472,2.753c-3.459,3.916-4.358,9.838-1.959,14.257
		c-5.079,0.312-9.644,4.326-11.062,9.406c-1.17,4.207,0.223,8.676,3.928,11.129c4.091,2.712,10.088,1.258,14.419,0.022
		c4.784-1.366,9.06-3.497,13.499-5.678c0.677-0.333,1.208-0.713,1.616-1.135c1.082-0.931,1.71-2.241,1.47-4.254
		c-0.583-4.906-1.125-9.656-2.579-14.414C168.879,532.144,166.841,526.322,162.337,524.362z"/>
	<path fill="#C2E6E8" d="M190.62,622.104c3.95-2.032,5.823-6.322,5.121-10.628c-0.841-5.154-4.861-9.599-9.799-10.535
		c2.97-4.133,2.751-10.206-0.29-14.519c-2.516-3.568-6.859-5.313-11.102-3.997c-4.69,1.453-7.357,7.016-9.14,11.15
		c-1.967,4.574-3.023,9.232-4.141,14.048c-0.17,0.735-0.212,1.388-0.145,1.969c0.036,1.427,0.655,2.742,2.364,3.83
		c4.17,2.654,8.193,5.237,12.796,7.12C180.453,622.247,186.252,624.351,190.62,622.104z"/>
</g>
<path fill="#BE1E2D" d="M45.615,412.895c-6.112,1.101-10.375,6.068-11.196,12.112c-0.982,7.239,2.574,14.822,8.793,18.095
	c-5.66,4.309-7.854,12.518-5.552,19.532c1.902,5.799,6.994,9.91,13.204,9.888c6.867-0.027,12.707-6.374,16.782-11.173
	c4.502-5.306,7.821-11.104,11.288-17.085c0.527-0.911,0.848-1.768,0.998-2.574c0.536-1.925,0.244-3.935-1.596-6.088
	c-4.491-5.253-8.805-10.355-14.192-14.755C59.266,416.859,52.373,411.678,45.615,412.895z"/>
<g>
	<path d="M99.435,371.982c-0.288,0.421-0.74,0.36-3.986-0.315c-2.132-0.407-3.812-0.753-3.909-0.881
		c-0.098-0.128-0.148-0.596-0.086-1.048l0.124-0.904l-4.845-0.779c-4.859-0.666-12.591-1.38-12.863-1.072
		c-0.129,0.098-3.575,21.042-3.478,21.17c0.098,0.129,0.662,0.207,1.211,0.397l1.212,0.396l0.49-1.89
		c0.268-1.115,0.521-2.117,0.664-2.327c0.274-0.308,7.173,1.443,7.562,1.957c0.293,0.386,0.01,1.614-0.953,5.281
		c-0.582,2.568-1.438,5.445-1.787,6.318l-0.556,1.536l-3.972-0.429c-3.616-0.496-3.842-0.527-3.991-1.123
		c-0.082-0.241-0.021-0.693,0.011-0.919c0.144-0.21-0.939-0.705-3.59-1.528c-16.679-5.165-27.849-11.876-30.982-18.409
		c-1.063-2.333-1.282-4.091-0.83-6.562c2.17-9.95,19.683-14.228,47.995-11.614c3.535,0.254,7.28,0.652,8.281,0.905l1.922,0.263
		l0.614-2.794l3.391,0.464c1.823,0.135,3.729,0.512,4.053,0.671c0.857,0.463,0.95-0.215-0.633,7.974
		C100.017,369.415,99.579,371.772,99.435,371.982z M44.643,371.036c-1.912,1.35-2.005,2.028-0.347,4.213
		c1.673,2.072,5.673,4.808,10.316,7.056c4.109,1.945,7.278,3.185,7.535,2.99c0.129-0.098,0.804-3.344,1.346-7.3
		c0.64-3.827,1.326-7.993,1.48-9.123l0.408-2.132l-1.048,0.086C53.996,367.482,47.825,368.824,44.643,371.036z"/>
	<path d="M106.892,321.267c-0.283,0.157-6.603-2.225-7.169-2.74c-0.188-0.172-0.283-0.673-0.159-1.112
		c0.249-0.878,0.765-0.613-6.717-3.916c-19.829-8.695-31.936-12.003-32.806-8.929c-0.497,1.756,2.151,7.485,5.42,11.849
		c5.644,7.288,15.932,16.602,22.539,20.488c2.667,1.466,3.655,1.746,4.061,1.149c0.234-0.407,0.594-0.424,3.809,0.367
		c1.866,0.528,3.512,0.994,3.732,1.056c0.188,0.172,0.19,1.003-0.089,1.991c-0.571,3.276-2.108,9.125-2.422,9.393
		c-0.171,0.188-1.63-0.105-4.075-0.679l-3.732-1.057l0.108-0.8c0.124-0.439,0.107-0.799-0.002-0.83
		c-0.439-0.125-18.453-3.918-28.74-6.118c-5.8-1.286-10.724-2.324-10.943-2.386c-0.11-0.031-0.423,0.236-0.546,0.675
		c-0.328,0.738-0.328,0.738-4.138,0.371c-2.288-0.291-3.887-0.507-3.934-0.757c-0.268-0.313,0.711-9.64,1.116-11.066l0.218-0.769
		l3.808,0.366c4.139,0.46,4.358,0.522,4.017,1.73c-0.094,0.329,0.033,0.721,0.22,0.893c0.409,0.234,21.137,4.915,21.418,4.758
		c0,0-1.288-1.313-2.875-2.83c-12.771-12.27-18.988-23.396-17-30.421c0.528-1.866,2.169-3.892,3.921-5.056
		c1.924-1.353,5.761-1.927,9.131-1.684c5.548,0.502,15.712,3.972,31.525,10.937c3.279,1.402,6.15,2.57,6.259,2.602
		c0.22,0.062,0.532-0.206,0.797-0.723c0.234-0.408,0.578-0.785,0.939-0.802c0.359-0.017,5.724,1.976,6.619,2.584
		c0.597,0.406,0.255,1.613-2.239,7.073C107.953,319.195,107.033,321.188,106.892,321.267z"/>
	<path d="M105.049,302.342l-3.538-1.59l0.702-1.561l-6.462-3.155c-10.728-5.073-30.623-14.518-35.2-16.575l-4.37-1.965l-0.852,1.618
		l-3.48-1.439c-3.065-1.252-3.539-1.591-3.709-2.043c-0.078-0.661,4.354-10.8,4.947-11.284c0.301-0.115,1.285,0.202,3.943,1.522
		l3.539,1.59l-0.41,1.191c-0.328,0.729-0.307,1.239-0.099,1.332c0.208,0.094,0.884-0.853,2.449-3.777
		c3.607-6.633,7.148-11.17,11.692-14.881c10.171-8.436,21.601-7.425,27.929,2.424c4.798,7.41,5.902,20.539,2.686,32.978
		c-1.106,4.13-1.117,3.875-0.076,4.343c0.728,0.328,0.879,0.271,1.066-0.146c0.036-0.359,0.223-0.775,0.468-1.04
		c0.338-0.474,0.592-0.484,4.025,1.06c2.602,1.169,3.491,1.694,3.502,1.949c-0.12,0.821-4.319,10.441-4.714,10.764
		C108.737,303.875,108.066,303.698,105.049,302.342z M91.086,254.663c-5.722-2.572-13.867,3.022-20.364,13.86
		c-0.712,1.306-1.611,3.028-1.985,3.86l-0.702,1.561l4.787,2.152c2.705,1.216,8.901,4.126,13.849,6.475
		c5.052,2.397,9.213,4.268,9.318,4.315c0.358,0.036,1.256-4.188,1.76-8.089C99.455,266.931,96.705,257.189,91.086,254.663z"/>
	<path d="M153.146,223.693l-3.189-2.015l0.815-1.522c0.641-1.085,0.655-1.496,0.378-1.696c-1.759-1.267-49.219-31.213-49.537-31.162
		c0,0-1.614,2.633-3.402,5.703c-2.229,3.877-3.47,5.795-3.722,5.755c-0.544,0.17-6.751-3.313-6.828-3.791
		c-0.026-0.16,1.229-2.489,2.75-5.189c1.615-2.633,3.203-5.425,3.51-6.047l0.548-1.152l-3.004-1.881
		c-2.195-1.44-3.029-2.04-2.988-2.292c-0.011-0.57,3.751-6.577,4.136-6.721c0,0,1.43,0.748,3.07,1.788
		c1.548,0.974,2.911,1.815,2.978,1.722c0.159-0.026,0.865-1.204,1.707-2.566c1.322-2.422,2.829-4.711,3.081-4.67
		c0,0,1.522,0.814,3.255,1.921c2.356,1.415,3.189,2.015,3.241,2.333c0.025,0.159-0.83,1.933-1.977,3.917
		c-1.081,1.893-1.962,3.507-1.936,3.667c0.024,0.159,5.158,3.573,11.536,7.602c21.95,13.833,35.815,22.689,37.151,23.371
		l1.364,0.841l0.666-0.926c0.601-0.834,0.667-0.926,1.566-0.419c2.489,1.23,5.797,3.47,5.782,3.881
		c-0.108,0.344-5.232,9.025-6.498,10.784c-0.333,0.462-0.76,0.859-0.918,0.885C156.429,225.773,154.973,224.867,153.146,223.693z"/>
	<path d="M187.193,188.424c-0.322,0.013-1.013-1.088-2.319-3.376l-1.834-3.396l0.863-0.601c1.72-1.363,1.72-1.363,0.854-2.781
		c-1.55-2.357-5.207-6.809-7.996-9.842c-6.921-7.303-14.774-11.742-18.092-9.99c-2.141,0.976-2.552,6.645-0.912,13.117
		c0.706,3.442,3.049,9.32,4.982,13.116c1.313,2.448,5.041,8.672,5.376,8.982c0.084,0.077,0.554-0.265,1.102-0.691l0.855-0.763
		l2.925,2.383c2.505,1.996,2.924,2.382,2.945,2.865c-0.129,0.813-8.763,10.696-9.324,10.801c-0.245-0.071-1.743-1.14-3.33-2.446
		l-2.847-2.466l0.38-0.581c0.224-0.413,0.682-1.078,1.068-1.498l0.772-0.839l-17.366-15.834
		c-9.484-8.731-19.38-17.688-21.975-19.922c-4.448-4.095-4.533-4.172-4.996-3.669c-0.928,1.007-1.172,0.937-3.962-2.097l-2.7-2.795
		l2.474-2.686c1.397-1.35,3.413-3.371,4.417-4.462l2.022-1.859l2.601,2.396c1.512,1.391,2.776,2.711,2.867,2.949
		c0.175,0.316-0.051,0.729-0.514,1.232l-0.773,0.839l13.009,11.978c7.218,6.645,13.093,12.054,13.169,11.97
		c0,0-0.291-1.199-0.667-2.475c-1.773-5.821-2.439-12.172-1.555-16.164c0.999-5.128,4.314-8.897,8.634-9.884
		c6.24-1.387,13.718,1.775,22.278,9.657c4.868,4.482,8.265,8.54,13.24,15.601c0.258,0.393,0.504,0.464,1.367-0.137
		c0.63-0.349,1.27-0.537,1.352-0.459c0.245,0.07,1.195,1.565,2.236,3.298c1.654,2.919,1.83,3.235,1.366,3.738
		c-0.232,0.252-2.907,1.978-5.986,3.639C190.042,187.015,187.355,188.417,187.193,188.424z"/>
	<path d="M207.722,169.746c-3.605,2.807-6.605,5.093-6.767,5.081c-0.408,0.051-44.074-50.418-44.2-50.913
		c-0.114-0.656,20.611-18.374,21.255-18.327c0.396,0.11,1.674,1.418,4.356,4.529l3.638,4.395l-5.962,5.14l-2.619-2.863l-9.244,7.972
		l21.243,24.462l4.394-3.639c2.408-1.924,4.469-3.552,4.469-3.552c0.087-0.074,1.279,1.308,2.682,3.11l2.521,3.099l-8.479,7.461
		l3.266,3.962c1.862,2.16,3.513,3.9,3.673,3.912c0.162,0.012,2.051-1.466,4.199-3.167l4.036-3.18l-1.006-1.692
		c-0.499-0.927-0.995-1.854-1.059-2.101c0.11-0.396,3.853-2.87,6.125-4.077c0.754-0.349,0.828-0.262,3.925,4.901
		c2.437,4.225,2.849,5.226,2.083,5.735c-0.172,0.149-1.543,1.18-3.172,2.435C215.462,163.524,211.252,166.853,207.722,169.746z"/>
	<path d="M243.479,132.764c-2.354-3.382-2.412-3.481-1.03-4.282l0.691-0.4l-1.756-2.807c-1.014-1.522-3.056-4.822-4.698-7.43
		c-5.955-9.603-17.81-28.709-19.166-30.823c-1.871-3.004-1.871-3.004,2.047-5.799c4.215-2.967,13.609-8.143,16.914-9.266
		c7.711-2.62,13.328-2.708,17.122-0.027c1.179,0.898,1.621,1.434,2.593,3.112c1.029,1.777,1.158,2.229,1.34,4.365
		c0.421,6.875-4.701,16.696-13.955,26.668c-1.352,1.309-2.349,2.546-2.391,2.702c-0.042,0.156,1.845,3.414,4.229,7.306l4.371,7.092
		l1.086-0.628c1.284-0.743,1.227-0.843,3.768,3.091l1.97,2.946l-0.536,0.441c-0.479,0.541-8.865,6.319-9.654,6.777
		c-0.198,0.114-0.396,0.229-0.609,0.088C245.76,135.793,244.704,134.426,243.479,132.764z M248.241,84.526
		c0.978-2.411,1.173-5.03,0.421-5.648c-0.655-0.676-3.316-0.717-5.534-0.223c-3.928,0.956-10.943,4.095-14.326,6.449l-1.762,1.284
		l3.3,5.471c3.627,5.81,6.054,9.545,6.252,9.431c0,0,0.956-1.081,2.011-2.219C243.004,94.15,246.708,88.709,248.241,84.526z"/>
	<path d="M292.55,114.179c-4.266,1.636-7.801,2.948-7.952,2.89c-0.404-0.07-27.485-61.063-27.461-61.572
		c0.083-0.66,25.066-11.577,25.667-11.344c0.348,0.221,1.189,1.844,2.85,5.601l2.202,5.263l-7.2,3.182l-1.672-3.501l-11.165,4.934
		l13.201,29.587l5.263-2.202c2.863-1.141,5.309-2.097,5.309-2.097c0.104-0.046,0.843,1.624,1.661,3.756l1.509,3.698l-10.283,4.669
		l1.97,4.741c1.153,2.608,2.226,4.754,2.376,4.812c0.15,0.058,2.389-0.806,4.938-1.808l4.788-1.867l-0.471-1.912
		c-0.207-1.031-0.413-2.062-0.4-2.317c0.22-0.347,4.521-1.624,7.047-2.116c0.822-0.115,0.869-0.01,2.328,5.831
		c1.101,4.751,1.204,5.828,0.322,6.093c-0.209,0.092-1.82,0.68-3.744,1.405C301.766,110.479,296.77,112.438,292.55,114.179z"/>
	<path d="M303.749,72.881c-1.241-2.127-2.633-6.712-2.75-9.061c-0.536-6.871,2.773-14.433,8.22-19.662
		c4.892-4.703,11.319-7.488,17.788-7.782c1.3-0.037,2.35-0.117,2.35-0.117c-0.035-0.109,0.204-0.897,0.441-1.684
		c0.314-0.93,0.662-1.75,0.737-1.893c0.186-0.176,6.956,1.704,7.449,2.15c0.176,0.185,0.081,1.048-0.125,1.946l-0.477,1.575
		l2.059,1.283c7.599,4.609,11.093,14.16,8.314,23.467c-0.68,2.472-3.038,6.883-4.758,9.074c-4.55,5.435-10.931,9.159-17.527,10.208
		C316.556,83.659,307.781,79.884,303.749,72.881z M339.833,53.109c-0.729-2.402-2.014-4.277-3.602-5.583l-1.238-0.937l-0.366,1.542
		c-0.205,0.897-0.585,1.608-0.694,1.642c-0.219,0.065-6.704-1.662-7.415-2.042c-0.143-0.076-0.199-0.655-0.071-1.41
		c0.239-0.788,0.182-1.367,0.04-1.443c-0.46-0.337-5.372,1.154-7.314,2.22c-6.338,3.473-10.577,10.72-9.77,16.913
		c0.698,6.227,6.174,10.525,13.145,10.318c2.35-0.117,6.279-1.31,8.592-2.727C338.185,67.32,341.787,59.55,339.833,53.109z"/>
	<path d="M361.409,83.15c-0.979-4.003-0.997-4.115,0.581-4.365l0.789-0.125l-0.628-3.25c-0.398-1.785-1.116-5.599-1.709-8.623
		c-2.102-11.103-6.287-33.194-6.791-35.656c-0.665-3.475-0.665-3.475,3.997-4.674c4.999-1.252,15.627-2.701,19.115-2.559
		c8.137,0.331,13.41,2.269,15.985,6.135c0.777,1.264,0.997,1.922,1.299,3.837c0.321,2.029,0.279,2.498-0.319,4.556
		c-2.08,6.566-10.395,13.886-22.618,19.86c-1.731,0.736-3.106,1.531-3.203,1.662c-0.094,0.13,0.493,3.849,1.319,8.338l1.526,8.191
		l1.239-0.196c1.464-0.231,1.447-0.344,2.402,4.241l0.778,3.457l-0.659,0.22c-0.64,0.333-10.544,2.707-11.445,2.849
		c-0.226,0.036-0.452,0.071-0.6-0.136C362.448,86.798,361.956,85.144,361.409,83.15z M383.211,39.857
		c1.779-1.897,2.905-4.271,2.425-5.118c-0.368-0.866-2.836-1.862-5.083-2.2c-4.009-0.521-11.685-0.117-15.688,0.862l-2.105,0.564
		l1.11,6.292c1.294,6.725,2.214,11.084,2.439,11.048c0,0,1.281-0.665,2.675-1.346C374.862,46.952,380.275,43.209,383.211,39.857z"/>
	<path d="M422.925,72.786l0.174-1.151l-3.771-0.049c-1.943-0.021-4.904,0.12-6.614,0.201c-2.393,0.114-2.968,0.027-3.559-0.401
		c-0.591-0.429-0.619-0.999-2.138-20.912c-0.878-11.264-1.741-22.186-1.958-24.345l-0.418-3.977l-1.025,0.049
		c-0.797,0.038-1.15-0.173-1.28-0.51c-0.125-0.223-0.32-1.926-0.413-3.863c-0.13-2.734-0.054-3.538,0.283-3.668
		c0.222-0.125,3.185-0.265,6.597-0.542l6.152-0.293l0.293,3.754c0.31,4.097,0.104,4.563-1.378,4.634
		c-0.798,0.038-0.906-2.241,0.862,20.515c0.82,10.011,1.471,18.887,1.509,19.684l0.07,1.482l3.76-0.179
		c3.76-0.179,3.76-0.179,3.728-0.863c-0.016-0.342,0.19-0.808,0.401-1.161c0.32-0.472,0.549-0.483,3.982-0.304
		c2.062,0.13,3.901,0.386,3.901,0.386c0.239,0.217-0.695,11.795-0.992,12.724c-0.311,0.7-0.081,0.689-4.319,0.434
		C422.758,74.049,422.876,74.158,422.925,72.786z"/>
	<path d="M445.391,82.955c-4.548-0.433-8.299-0.828-8.408-0.948c-0.331-0.243,2.543-66.917,2.791-67.362
		c0.367-0.555,27.6,0.78,28.034,1.256c0.213,0.352,0.246,2.181,0.061,6.283l-0.368,5.693l-7.864-0.353l0.061-3.879l-12.195-0.547
		l-1.335,32.37l5.693,0.37c3.071,0.252,5.688,0.483,5.688,0.483c0.113,0.005,0.031,1.828-0.186,4.103l-0.292,3.983l-11.288-0.391
		l-0.344,5.123c-0.127,2.849-0.121,5.247-0.012,5.367c0.108,0.119,2.497,0.34,5.228,0.576l5.118,0.458l0.428-1.922
		c0.274-1.016,0.549-2.031,0.672-2.254c0.354-0.212,4.771,0.556,7.253,1.239c0.788,0.263,0.783,0.377-0.509,6.257
		c-1.126,4.746-1.515,5.756-2.42,5.602c-0.228-0.01-1.932-0.201-3.979-0.407C455.29,83.741,449.944,83.273,445.391,82.955z"/>
	<path d="M527.59,86.023c-8.991,0.257-17.114-3.973-21.765-11.343c-1.865-2.926-2.898-5.412-3.549-8.979
		c-0.846-4.203-0.742-6.057,0.564-11.375c1.035-4.209,1.311-4.847,2.547-7.01c4.591-7.683,11.047-12.439,19.479-14.243
		c4.341-0.93,7.634-0.942,12.064,0.147c3.85,1.064,5.983,1.941,8.953,4.199l1.805,1.266l1.158-0.89
		c0.69-0.418,1.38-0.835,1.49-0.808c0.333,0.081,4.754,5.515,5.004,5.929c-0.027,0.11-0.246,0.527-0.577,0.915
		c-1.324,1.084-10.152,7.843-10.373,7.788c-0.443-0.109-4.837-5.653-4.729-6.097c-0.056-0.249,0.274-0.638,0.604-1.026
		c0.607-0.556,0.607-0.556-0.835-1.379c-0.721-0.413-2.412-1.181-3.715-1.619c-8.616-2.706-18.669,1.871-23.34,10.356
		c-1.264,2.274-2.381,6.816-2.288,9.307c0.132,5.672,2.696,10.531,7.219,13.641c2.109,1.458,6.348,2.854,9.006,3.037
		c1.632,0.049,1.66-0.062,1.877-0.948c0.135-1.024,0.273-1.108,3.673-2.035c1.991-0.45,3.594-0.761,3.816-0.706
		c0.193,0.165,0.924,2.929,1.767,6.191c1.406,5.75,1.462,5.999,0.799,6.306c-0.912,0.363-6.745,1.631-7.077,1.549
		c-0.111-0.027-0.445-0.58-0.669-1.104l-0.31-1.134L527.59,86.023z"/>
	<path d="M565.88,110.743c-0.345-0.376-0.182-0.802,1.215-3.811c0.882-1.983,1.601-3.541,1.747-3.606
		c0.147-0.066,0.615-0.009,1.041,0.154l0.853,0.326l1.859-4.541c1.755-4.581,4.208-11.948,3.971-12.283
		c-0.065-0.147-19.679-8.267-19.825-8.201c-0.147,0.065-0.352,0.598-0.663,1.09l-0.661,1.091l1.73,0.906
		c1.024,0.514,1.942,0.988,2.114,1.177c0.238,0.335-3.036,6.655-3.625,6.918c-0.442,0.197-1.574-0.358-4.926-2.13
		c-2.369-1.152-4.977-2.639-5.747-3.178l-1.369-0.891l1.321-3.77c1.305-3.41,1.387-3.623,2.001-3.632
		c0.255-0.025,0.68,0.139,0.894,0.22c0.172,0.188,0.899-0.754,2.305-3.148c8.822-15.067,17.9-24.418,24.974-25.986
		c2.514-0.503,4.276-0.318,6.578,0.686c9.196,4.376,9.38,22.404,0.396,49.38c-1.052,3.385-2.291,6.942-2.765,7.859l-0.694,1.812
		l2.583,1.232l-1.224,3.196c-0.547,1.745-1.348,3.516-1.575,3.794c-0.646,0.73-0.008,0.975-7.621-2.429
		C568.249,111.894,566.053,110.931,565.88,110.743z M579.265,57.599c-0.88-2.169-1.52-2.414-4.023-1.296
		c-2.399,1.158-5.973,4.432-9.218,8.442c-2.829,3.559-4.758,6.363-4.626,6.658c0.065,0.148,3.074,1.544,6.804,2.971
		c3.58,1.494,7.481,3.109,8.547,3.518l1.984,0.881l0.153-1.041C580.598,67.516,580.696,61.201,579.265,57.599z"/>
	<path d="M618.978,133.118c-0.084-0.311,0.606-1.756,1.835-3.681l1.907-3.116l2.194,0.988l0.847-1.487
		c0.508-0.892,5.943-9.744,11.958-19.841c6.113-10.042,11.28-18.652,11.563-19.147c0.183-0.553-3.294,2.325-11.817,9.681
		l-12.111,10.432l-3.991,0.09c-2.193-0.068-4.033-0.065-4.076-0.221c-0.142-0.212-0.23-3.282-0.136-6.905
		c-0.006-3.679-0.03-11.703-0.011-17.73c-0.023-6.184-0.044-11.448-0.13-11.759c-0.028-0.41-0.24-0.268-0.706,0.78
		c-0.24,0.651-4.291,8.454-8.849,17.148c-4.46,8.751-8.396,16.355-8.637,17.006c-0.409,0.949-0.366,1.104,0.229,1.443
		c0.297,0.17,0.638,0.495,0.681,0.65c-0.057,0.099-0.763,1.798-1.836,3.682l-1.722,3.483l-0.65-0.24
		c-0.452-0.127-2.987-1.439-5.764-3.021l-5.112-2.78l1.666-3.384c1.017-1.785,1.977-3.47,2.131-3.512
		c0.312-0.085,0.863,0.098,1.459,0.437l0.992,0.564l1.155-2.492c0.636-1.345,4.12-8.157,7.763-15.01
		c3.599-7.01,8.51-16.554,10.909-21.227c2.455-4.772,5.137-9.94,5.941-11.583l1.637-2.875l3.229,1.707
		c2.788,1.327,3.229,1.708,3.653,2.344c0.228,0.523,0.346,4.004,0.352,8.603c-0.091,26.207,0.032,33.367,0.188,33.324
		c0.156-0.042,6.685-5.513,14.459-12.246c22.134-19.035,23.363-20.042,23.731-20.226c0.424-0.283,0.566-0.071,1.529,1.003
		c3.175,3.646,4.125,4.975,3.997,5.427c-0.069,0.354-2.428,4.263-5.18,8.865c-4.815,7.761-26.6,43.932-30.369,50.319l-1.85,3.017
		l2.323,1.455l-2.075,3.413c-1.808,3.172-2.019,3.314-2.528,3.287c-0.354-0.071-2.932-1.539-5.651-3.219
		C621.287,134.827,619.021,133.273,618.978,133.118z"/>
	<path d="M638.307,148.878c-3.5-2.937-6.364-5.391-6.386-5.551c-0.136-0.389,40.06-53.663,40.518-53.889
		c0.617-0.249,22.285,16.301,22.373,16.94c-0.024,0.411-1.035,1.935-3.515,5.209l-3.534,4.479l-6.275-4.751l2.251-3.161
		l-9.732-7.368l-19.466,25.898l4.478,3.535c2.388,1.95,4.411,3.625,4.411,3.625c0.091,0.069-1.012,1.523-2.479,3.274l-2.502,3.114
		l-9.072-6.727l-3.19,4.023c-1.722,2.274-3.077,4.252-3.055,4.413c0.022,0.16,1.863,1.697,3.978,3.44l3.954,3.281l1.445-1.339
		c0.8-0.681,1.603-1.361,1.831-1.475c0.41,0.024,3.613,3.165,5.269,5.135c0.5,0.664,0.432,0.755-3.969,4.865
		c-3.619,3.269-4.512,3.881-5.171,3.239c-0.182-0.138-1.478-1.262-3.046-2.592C646.012,155.142,641.876,151.724,638.307,148.878z"/>
	<path d="M690.176,188.984l2.608-2.726l1.33,1.102c0.936,0.843,1.336,0.939,1.587,0.707c1.591-1.473,40.364-42.042,40.377-42.364
		c0,0-2.26-2.105-4.914-4.468c-3.357-2.954-4.992-4.551-4.902-4.79c-0.058-0.568,4.588-5.959,5.072-5.94
		c0.161,0.006,2.194,1.699,4.538,3.726c2.261,2.105,4.682,4.217,5.231,4.642l1.021,0.766l2.438-2.571
		c1.85-1.866,2.603-2.564,2.841-2.474c0.562,0.102,5.701,4.982,5.767,5.388c0,0-1.017,1.252-2.362,2.654
		c-1.262,1.323-2.356,2.492-2.279,2.577c-0.006,0.161,1.008,1.088,2.176,2.182c2.112,1.777,4.057,3.708,3.967,3.947
		c0,0-1.101,1.331-2.53,2.809c-1.854,2.028-2.606,2.726-2.93,2.713c-0.161-0.006-1.729-1.196-3.446-2.715
		c-1.641-1.436-3.049-2.62-3.211-2.626c-0.16-0.006-4.524,4.347-9.739,9.798c-17.917,18.767-29.35,30.598-30.283,31.773
		l-1.095,1.168l0.776,0.837c0.696,0.753,0.774,0.837,0.099,1.619c-1.699,2.195-4.551,4.992-4.95,4.896
		c-0.317-0.174-7.808-6.92-9.28-8.51c-0.388-0.418-0.69-0.915-0.686-1.076C687.486,191.786,688.664,190.54,690.176,188.984z"/>
	<path d="M724.187,183.238c1.589-1.882,5.445-4.726,7.62-5.621c6.297-2.802,14.53-2.213,21.279,1.172
		c6.068,3.037,10.843,8.163,13.282,14.161c0.469,1.213,0.895,2.175,0.895,2.175c0.093-0.068,0.915-0.107,1.737-0.146
		c0.979-0.015,1.87,0.038,2.029,0.062c0.228,0.116,0.719,7.125,0.463,7.739c-0.116,0.228-0.961,0.426-1.875,0.533l-1.643,0.078
		l-0.521,2.369c-1.803,8.702-9.636,15.189-19.337,15.682c-2.557,0.185-7.503-0.562-10.144-1.449
		c-6.642-2.472-12.286-7.239-15.48-13.106C718.313,198.913,718.936,189.38,724.187,183.238z M754.888,210.635
		c2.021-1.49,3.357-3.328,4.058-5.262l0.469-1.479l-1.577,0.17c-0.912,0.107-1.711-0.013-1.778-0.105
		c-0.136-0.183-0.677-6.873-0.556-7.671c0.024-0.159,0.551-0.406,1.306-0.537c0.821-0.039,1.347-0.286,1.371-0.446
		c0.165-0.546-2.883-4.677-4.537-6.151c-5.392-4.812-13.641-6.382-19.206-3.551c-5.636,2.739-7.855,9.338-5.328,15.838
		c0.895,2.175,3.332,5.48,5.441,7.185C740.943,213.833,749.471,214.63,754.888,210.635z"/>
	<path d="M766.379,223.34c6.136-3.524,9.164-4.877,12.714-5.732c8.571-2.105,16.742,0.137,22.199,6.02
		c2.152,2.344,4.403,6.574,5.092,9.567c1.651,6.746,0.328,14.944-3.18,19.524l-0.94,1.146l1.481,2.055l-3.001,2.373
		c-2.352,1.897-3.104,2.426-3.412,2.332c-0.616-0.188-7.722-8.684-8.418-9.993c-0.43-0.806-0.531-0.752,3.022-3.547
		c2.901-2.319,2.901-2.319,4.113-0.768c0.369,0.45,0.738,0.9,0.939,0.792c0.403-0.214,1.386-3.709,1.589-5.756
		c0.767-8.031-2.96-14.062-9.843-15.826c-5.085-1.3-11.872,0.761-20.513,6.134c-11.052,6.916-17.138,12.479-20.196,18.629
		c-3.645,7.238,0.524,12.644,9.242,12.269c2.906-0.124,7.832-1.065,7.974-1.528c0.048-0.154-0.688-2.994-1.537-6.29
		c-1.004-3.342-1.639-6.236-1.544-6.544c0.141-0.463,0.698-0.63,3.483-1.467c1.927-0.508,3.551-0.855,3.652-0.909
		c0.154,0.047,0.415,0.295,0.576,0.597c0.589,1.108,5.229,19.057,5.148,19.875c-0.081,0.819,0.274,0.758-6.21,2.659
		c-11.854,3.465-20.248,2.504-25.946-2.863c-1.623-1.592-2.896-3.499-3.559-5.472C735.131,248.885,744.994,235.365,766.379,223.34z"
		/>
	<path d="M753.814,297.01c-1.437-4.337-2.585-7.929-2.521-8.077c0.089-0.402,62.271-24.635,62.78-24.587
		c0.654,0.113,10.405,25.576,10.144,26.166c-0.235,0.337-1.896,1.103-5.726,2.587l-5.358,1.956l-2.847-7.338l3.575-1.509
		l-4.413-11.381l-30.165,11.819l1.954,5.36c1.009,2.913,1.851,5.401,1.851,5.401c0.041,0.106-1.661,0.766-3.829,1.484l-3.765,1.337
		l-4.189-10.489l-4.827,1.75c-2.659,1.031-4.852,2.003-4.917,2.151c-0.065,0.148,0.694,2.422,1.578,5.017l1.644,4.869l1.932-0.382
		c1.039-0.159,2.079-0.317,2.333-0.293c0.336,0.237,1.414,4.591,1.789,7.137c0.075,0.827-0.031,0.869-5.933,2.056
		c-4.797,0.881-5.879,0.933-6.103,0.041c-0.082-0.212-0.594-1.85-1.23-3.805C757.082,306.388,755.358,301.306,753.814,297.01z"/>
	<path d="M770.501,331.78l3.564-1.231l0.68,1.587c0.446,1.178,0.759,1.446,1.088,1.354c2.088-0.582,55.12-18.925,55.279-19.205
		c0,0-1.048-2.906-2.326-6.22c-1.635-4.163-2.358-6.331-2.17-6.501c0.208-0.531,6.806-3.201,7.228-2.963
		c0.142,0.079,1.175,2.515,2.332,5.389c1.048,2.906,2.235,5.891,2.529,6.519l0.556,1.148l3.346-1.17
		c2.497-0.815,3.486-1.09,3.656-0.901c0.453,0.348,2.793,7.038,2.664,7.429c0,0-1.476,0.648-3.314,1.279
		c-1.728,0.601-3.234,1.139-3.204,1.25c-0.08,0.141,0.398,1.428,0.937,2.936c1.065,2.545,1.911,5.152,1.722,5.323
		c0,0-1.587,0.679-3.534,1.341c-2.576,0.954-3.564,1.231-3.846,1.072c-0.141-0.079-0.99-1.855-1.824-3.991
		c-0.803-2.027-1.512-3.724-1.652-3.803c-0.141-0.08-6.013,1.795-13.142,4.257c-24.516,8.494-40.093,13.786-41.46,14.404
		l-1.508,0.538l0.306,1.099c0.277,0.989,0.308,1.099-0.65,1.484c-2.516,1.175-6.331,2.357-6.642,2.089
		c-0.203-0.299-3.778-9.724-4.36-11.812c-0.153-0.549-0.197-1.129-0.118-1.271C766.826,333.042,768.442,332.472,770.501,331.78z"/>
	<path d="M776.73,380.346c0.19-0.26,1.483-0.11,4.084,0.301l3.797,0.692l-0.07,1.049c-0.013,2.194-0.013,2.194,1.636,2.405
		c2.809,0.265,8.568,0.197,12.679-0.083c10.026-0.833,18.401-4.184,19.11-7.868c0.576-2.28-3.588-6.147-9.663-8.915
		c-3.129-1.601-9.178-3.45-13.349-4.316c-2.732-0.508-9.919-1.491-10.37-1.422c-0.113,0.017-0.14,0.598-0.15,1.292l0.06,1.145
		l-3.688,0.792c-3.123,0.706-3.688,0.791-4.077,0.505c-0.554-0.609-2.865-13.526-2.595-14.029c0.207-0.147,1.978-0.647,3.99-1.068
		l3.705-0.68l0.216,0.66c0.182,0.434,0.414,1.207,0.5,1.771l0.171,1.127l23.215-3.646c12.743-1.938,25.921-4.058,29.287-4.685
		c5.977-0.91,6.09-0.926,5.986-1.604c-0.205-1.353,0.004-1.5,4.114-1.779l3.868-0.358l0.55,3.609
		c0.179,1.935,0.495,4.771,0.718,6.237l0.186,2.741l-3.495,0.532c-2.03,0.309-3.852,0.471-4.095,0.392
		c-0.356-0.061-0.537-0.495-0.641-1.172l-0.17-1.127l-17.48,2.659c-9.698,1.475-17.593,2.676-17.576,2.789
		c0,0,1.118,0.522,2.348,1.027c5.652,2.256,11.023,5.708,13.585,8.895c3.375,3.987,4.242,8.932,2.312,12.918
		c-2.821,5.736-9.965,9.592-21.468,11.342c-6.54,0.995-11.832,1.107-20.451,0.572c-0.468-0.044-0.676,0.103-0.748,1.152
		c-0.123,0.711-0.375,1.326-0.487,1.343c-0.209,0.147-1.969-0.046-3.972-0.319c-3.313-0.535-3.668-0.596-3.771-1.272
		c-0.052-0.338,0.275-3.503,0.905-6.946C776.049,383.449,776.634,380.475,776.73,380.346z"/>
	<path d="M778.448,408.036c0.068-4.568,0.166-8.339,0.276-8.457c0.217-0.35,66.908-2.779,67.373-2.566
		c0.581,0.322,1.413,27.574,0.973,28.047c-0.334,0.24-2.154,0.417-6.259,0.559l-5.704,0.083l-0.272-7.866l3.871-0.249l-0.424-12.199
		l-32.374,1.238l0.083,5.704c-0.007,3.082-0.029,5.708-0.029,5.708c0.003,0.114-1.82,0.177-4.104,0.142l-3.994,0.024l-0.506-11.283
		l-5.134,0.064c-2.852,0.099-5.241,0.296-5.351,0.414c-0.111,0.118-0.142,2.516-0.16,5.256l-0.05,5.138l1.949,0.275
		c1.034,0.193,2.068,0.385,2.3,0.491c0.239,0.334-0.176,4.8-0.659,7.328c-0.2,0.806-0.313,0.811-6.278-0.011
		c-4.82-0.745-5.858-1.052-5.775-1.968c-0.007-0.228,0.047-1.942,0.09-3.998C778.449,417.966,778.491,412.601,778.448,408.036z"/>
	<path d="M809.493,433.841c0.105,0.121,0.299,0.705,0.264,1.274l-0.063,1.024l1.822,0.112c2.392,0.147,22.716,0.485,25.343,0.533
		c2.063-0.102,2.177-0.095,2.341-0.885l0.163-0.79l3.771,0.004c2.171,0.02,3.992,0.132,4.099,0.252
		c0.115,0.008,0.201,2.299,0.147,5.039c-0.048,2.626-0.096,5.252-0.01,5.714c-0.035,0.57-0.07,1.14-0.19,1.246
		c-0.37,0.435-7.345,0.462-7.893,0.085c-0.106-0.12-0.299-0.704-0.264-1.273l0.062-1.024l-1.821-0.112
		c-2.619-0.161-2.86,0.052-1.606,1.958c1.461,2.262,3.051,6.132,3.68,8.914c0.458,1.856,0.501,3.003,0.325,5.85
		c-0.288,4.668-0.166,4.562-4.323,3.391c-1.688-0.446-3.366-1.008-3.596-1.021c-0.44-0.256-0.533-0.604-0.421-2.426
		c0.182-2.961-0.075-4.349-1.26-7.394c-0.791-1.992-1.524-3.065-3.229-5.113c-1.288-1.337-2.905-2.923-3.789-3.435l-1.538-1.009
		l-4.113-0.024c-2.17-0.02-4.796-0.067-5.707-0.124l-1.601,0.016l-0.433,3.288l-3.771-0.004c-2.284-0.025-3.764-0.117-3.984-0.245
		c-0.101-0.234-0.301-2.533-0.361-5.28c-0.066-2.633-0.111-5.607-0.17-6.525c-0.042-1.146,0.106-1.708,0.349-1.922
		C802.312,433.513,809.058,433.472,809.493,433.841z"/>
	<path d="M763.2,520.728c0.336-0.384,0.777-0.269,3.92,0.791c2.068,0.659,3.694,1.203,3.776,1.342
		c0.081,0.14,0.075,0.61-0.039,1.051l-0.231,0.883l4.716,1.353c4.745,1.243,12.336,2.877,12.644,2.604
		c0.139-0.082,6.065-20.463,5.984-20.603c-0.083-0.14-0.634-0.283-1.157-0.539l-1.155-0.538l-0.713,1.818
		c-0.399,1.074-0.769,2.039-0.938,2.23c-0.308,0.273-6.946-2.29-7.272-2.848c-0.244-0.417,0.184-1.603,1.578-5.129
		c0.885-2.48,2.078-5.233,2.53-6.059l0.735-1.458l3.892,0.9c3.531,0.925,3.752,0.982,3.828,1.593
		c0.052,0.248-0.063,0.689-0.121,0.911c-0.168,0.191,0.849,0.812,3.382,1.946c15.941,7.122,26.229,15.122,28.56,21.982
		c0.774,2.443,0.784,4.214,0.037,6.613c-3.344,9.619-21.242,11.772-49.038,5.792c-3.479-0.675-7.149-1.519-8.113-1.889l-1.877-0.491
		l-0.943,2.701l-3.311-0.867c-1.794-0.352-3.642-0.953-3.944-1.15c-0.796-0.563-0.969,0.101,1.582-7.84
		C762.314,523.208,763.032,520.919,763.2,520.728z M817.487,528.22c2.059-1.112,2.231-1.774,0.847-4.141
		c-1.413-2.257-5.058-5.452-9.398-8.239c-3.847-2.423-6.845-4.033-7.123-3.87c-0.139,0.082-1.197,3.224-2.209,7.086
		c-1.093,3.725-2.272,7.778-2.562,8.882l-0.658,2.067l1.05,0.039C807.776,530.63,814.063,530.035,817.487,528.22z"/>
	<path d="M776.4,548.903l1.131-0.644l-0.7-1.894l3.682-1.443c1.936-0.805,3.68-1.442,3.785-1.399
		c0.422,0.174,4.962,11.305,4.787,11.727c-0.086,0.211-1.812,1.103-3.748,1.908l-3.576,1.485l-1.202-2.47l-0.937,0.478
		c-1.385,0.662-1.963,1.164-2.44,2.325c-0.262,0.632-0.33,1.098-0.058,1.333c1.842,2.118,6.705,2.891,11.739,1.759
		c0.851-0.266,3.314-0.854,5.313-1.51c4.76-1.367,7.137-1.744,9.718-1.42c7.366,0.695,12.12,7.717,10.946,16.242
		c-0.263,2.73-1.724,6.57-3.383,9.094c-2.479,3.914-6.851,8.527-9.645,10.213c-1.174,0.75-1.129,0.645-0.783,1.898
		c0.143,0.553,0.03,1.123-0.119,1.186c-0.576,0.502-6.995,2.296-7.312,2.166c-0.526-0.218-4.191-11.974-3.974-12.501
		c0.174-0.422,7.021-2.656,7.548-2.438c0.211,0.087,0.396,0.533,0.477,0.938c0.037,0.508,0.223,0.955,0.433,1.043
		c0.423,0.174,3.229-2.741,5.057-5.072c3.118-4.268,4.331-8.703,3.031-11.832c-0.515-1.445-0.577-1.595-2.053-2.204
		c-1.899-0.783-2.96-0.604-9.271,1.234c-5.06,1.491-8.603,2.003-12.14,1.901c-2.52-0.176-2.984-0.244-6.358-1.637
		c-3.165-1.306-3.754-1.672-5.013-2.809c-1.55-1.628-2.753-4.098-2.769-6.449c-0.21-2.185,1.252-6.024,2.773-7.619
		C772.477,551.233,774.377,549.92,776.4,548.903z"/>
	<path d="M724.131,620.008l3.243,1.926l-0.771,1.544c-0.61,1.103-0.613,1.514-0.33,1.706c1.793,1.217,50.067,29.836,50.385,29.775
		c0,0,1.54-2.677,3.242-5.795c2.12-3.938,3.307-5.891,3.561-5.857c0.54-0.185,6.842,3.126,6.933,3.602
		c0.03,0.158-1.159,2.521-2.606,5.263c-1.541,2.677-3.052,5.513-3.341,6.143l-0.516,1.167l3.054,1.797
		c2.235,1.379,3.085,1.955,3.051,2.209c0.027,0.568-3.565,6.679-3.947,6.833c0,0-1.449-0.708-3.118-1.702
		c-1.575-0.931-2.96-1.733-3.024-1.639c-0.159,0.03-0.833,1.228-1.635,2.613c-1.255,2.457-2.697,4.787-2.95,4.754
		c0,0-1.545-0.772-3.308-1.83c-2.394-1.35-3.244-1.926-3.304-2.242c-0.03-0.159,0.774-1.956,1.867-3.973
		c1.028-1.922,1.864-3.561,1.834-3.718c-0.03-0.159-5.257-3.429-11.743-7.279c-22.327-13.22-36.433-21.688-37.789-22.332
		l-1.385-0.802l-0.642,0.943c-0.577,0.85-0.64,0.944-1.554,0.462c-2.521-1.159-5.891-3.308-5.887-3.719
		c0.098-0.347,4.98-9.167,6.197-10.961c0.32-0.472,0.734-0.88,0.894-0.91C720.793,618.02,722.273,618.885,724.131,620.008z"/>
	<path d="M691.086,656.201c0.321-0.022,1.044,1.061,2.412,3.311l1.929,3.344l-0.846,0.624c-1.682,1.41-1.682,1.41-0.777,2.803
		c1.616,2.314,5.394,6.662,8.267,9.617c7.122,7.108,15.095,11.328,18.364,9.484c2.111-1.035,2.366-6.713,0.547-13.137
		c-0.802-3.422-3.307-9.231-5.344-12.973c-1.38-2.411-5.28-8.529-5.624-8.829c-0.086-0.075-0.547,0.28-1.082,0.722l-0.836,0.785
		l-2.989-2.3c-2.559-1.926-2.988-2.301-3.022-2.783c0.105-0.815,8.462-10.936,9.021-11.055c0.247,0.064,1.772,1.091,3.396,2.354
		l2.915,2.386l-0.364,0.591c-0.214,0.419-0.651,1.096-1.025,1.526l-0.749,0.861l17.798,15.345
		c9.724,8.466,19.865,17.145,22.521,19.306c4.561,3.971,4.647,4.046,5.096,3.529c0.899-1.032,1.146-0.969,4.019,1.985l2.776,2.72
		l-2.397,2.753c-1.359,1.388-3.318,3.464-4.292,4.583l-1.971,1.915l-2.667-2.322c-1.549-1.349-2.851-2.634-2.948-2.869
		c-0.183-0.311,0.031-0.73,0.481-1.246l0.749-0.86l-13.337-11.611c-7.4-6.442-13.422-11.687-13.497-11.601
		c0,0,0.324,1.19,0.735,2.456c1.936,5.769,2.777,12.099,2.004,16.114c-0.856,5.154-4.066,9.015-8.356,10.119
		c-6.199,1.562-13.763-1.394-22.539-9.034c-4.989-4.345-8.497-8.308-13.666-15.228c-0.27-0.385-0.517-0.449-1.363,0.175
		c-0.621,0.367-1.254,0.572-1.34,0.497c-0.247-0.063-1.238-1.531-2.325-3.235c-1.735-2.872-1.919-3.183-1.47-3.698
		c0.225-0.259,2.85-2.057,5.882-3.803C688.277,657.689,690.925,656.213,691.086,656.201z"/>
	<path d="M671.09,675.434c3.526-2.905,6.462-5.273,6.623-5.266c0.406-0.063,45.45,49.178,45.589,49.669
		c0.132,0.651-20.094,18.936-20.737,18.905c-0.399-0.099-1.714-1.371-4.481-4.405l-3.758-4.292l5.817-5.303l2.697,2.789l9.021-8.224
		l-21.912-23.864l-4.291,3.758c-2.353,1.991-4.369,3.674-4.369,3.674c-0.083,0.077-1.313-1.271-2.767-3.034l-2.605-3.027
		l8.269-7.693l-3.373-3.87c-1.922-2.107-3.62-3.801-3.781-3.809c-0.162-0.008-2.009,1.522-4.108,3.282l-3.948,3.29l1.054,1.664
		c0.523,0.912,1.047,1.824,1.116,2.069c-0.1,0.399-3.771,2.976-6.011,4.245c-0.744,0.369-0.82,0.284-4.059-4.79
		c-2.552-4.156-2.991-5.146-2.24-5.676c0.17-0.154,1.51-1.223,3.104-2.521C663.526,681.867,667.641,678.423,671.09,675.434z"/>
	<path d="M620.395,744.688c6.135,6.306,11.202,11.257,11.241,11.101c0.04-0.157-1.088-6.52-2.465-14.194
		c-1.416-7.519-2.505-14.038-2.523-14.293c0.159-0.625,5.813-5.18,6.438-5.021c0.155,0.04,26.682,34.171,27.439,35.446
		c0,0,0.195-0.116,0.489-0.291c0.688-0.408,1.018-0.074,3.432,2.87c1.636,2.08,2.259,2.905,2.08,3.276
		c-0.04,0.155-2.102,2.045-4.574,3.913c-3.533,2.764-4.554,3.503-4.964,3.481c-0.216-0.138-1.441-1.532-2.629-3.082
		c-2.374-3.102-2.393-3.355-1.02-4.172c0.588-0.35,0.628-0.506,0.278-1.094c-0.525-0.883-15.567-20.607-15.782-20.746
		c-0.097,0.059,0.742,5.267,1.929,11.728c2.984,16.407,2.984,16.407,2.69,16.582c-0.196,0.117-1.86,0.442-3.779,0.787l-3.485,0.611
		l-8.222-8.251c-7.949-8.016-8.124-8.31-7.504-6.819c0.794,1.783,14.603,31.265,14.894,31.756c0.175,0.294,0.626,0.158,1.527-0.111
		l1.233-0.602l1.786,3.451c0.951,1.823,1.746,3.606,1.707,3.763c-0.12,0.469-11.413,6.253-11.979,6.191
		c-0.47-0.119-0.859-0.551-2.179-3.217c-0.853-1.882-1.629-3.411-1.59-3.568c-0.018-0.254,0.512-0.701,1.102-1.051l1.078-0.642
		l-0.485-1.039c-0.62-1.489-8.552-18.406-17.026-36.46c-7.914-16.662-7.973-16.76-7.911-17.327c0.021-0.411,4.345-4.972,5.324-5.554
		c0.491-0.292,0.804-0.213,1.369,0.514C608.801,732.999,614.159,738.44,620.395,744.688z"/>
	<path d="M605.424,762.335c1.465,1.979,3.346,6.386,3.717,8.708c1.278,6.772-1.189,14.647-6.036,20.438
		c-4.352,5.206-10.438,8.672-16.836,9.666c-1.287,0.179-2.321,0.371-2.321,0.371c0.045,0.105-0.106,0.914-0.259,1.723
		c-0.21,0.959-0.466,1.812-0.526,1.962c-0.164,0.194-7.099-0.939-7.636-1.33c-0.195-0.165-0.194-1.034-0.088-1.947l0.302-1.617
		l-2.186-1.052c-8.053-3.757-12.563-12.87-10.811-22.424c0.407-2.531,2.271-7.172,3.742-9.536
		c3.934-5.896,9.872-10.291,16.314-12.049C591.521,753.013,600.655,755.813,605.424,762.335z M571.701,785.907
		c0.986,2.308,2.467,4.032,4.188,5.159l1.333,0.795l0.196-1.571c0.106-0.914,0.406-1.663,0.511-1.707
		c0.21-0.091,6.845,0.923,7.594,1.224c0.149,0.061,0.268,0.63,0.222,1.394c-0.15,0.809-0.031,1.378,0.118,1.438
		c0.493,0.285,5.215-1.73,7.029-3.001c5.922-4.14,9.349-11.804,7.875-17.873c-1.368-6.113-7.279-9.792-14.187-8.828
		c-2.322,0.371-6.099,1.983-8.243,3.643C571.798,771.603,569.06,779.717,571.701,785.907z"/>
	<path d="M552.473,780.921c-0.077,0.142-0.563,0.518-1.111,0.674l-0.987,0.282l0.502,1.755c0.658,2.304,7.117,21.578,7.947,24.069
		c0.784,1.912,0.816,2.021,1.615,1.912l0.799-0.109l1.255,3.557c0.705,2.053,1.207,3.808,1.129,3.949
		c0.031,0.109-2.1,0.956-4.702,1.818c-2.491,0.831-4.982,1.662-5.39,1.896c-0.55,0.156-1.098,0.314-1.238,0.235
		c-0.533-0.204-2.885-6.77-2.712-7.412c0.077-0.141,0.563-0.518,1.111-0.674l0.987-0.282l-0.501-1.755
		c-0.721-2.523-1.003-2.68-2.382-0.862c-1.645,2.132-4.764,4.922-7.177,6.442c-1.598,1.05-2.664,1.474-5.405,2.258
		c-4.498,1.285-4.356,1.363-4.641-2.945c-0.141-1.74-0.172-3.511-0.233-3.73c0.093-0.501,0.39-0.705,2.146-1.207
		c2.852-0.815,4.074-1.521,6.55-3.651c1.614-1.411,2.382-2.462,3.745-4.749c0.829-1.662,1.785-3.714,1.974-4.718l0.438-1.786
		l-1.349-3.887c-0.705-2.053-1.535-4.544-1.787-5.422l-0.548-1.504l-3.244,0.69l-1.255-3.558c-0.736-2.163-1.144-3.589-1.098-3.839
		c0.188-0.173,2.288-1.129,4.858-2.102c2.461-0.94,5.249-1.975,6.096-2.335c1.065-0.424,1.646-0.471,1.928-0.313
		C550.389,774.042,552.677,780.388,552.473,780.921z"/>
	<path d="M495.592,774.04l-0.018,1.163l3.743-0.456c1.928-0.237,4.846-0.773,6.528-1.082c2.356-0.434,2.938-0.424,3.582-0.078
		c0.643,0.346,0.745,0.907,4.913,20.44c2.376,11.046,4.689,21.757,5.194,23.867l0.945,3.887l1.01-0.186
		c0.785-0.145,1.164,0.019,1.337,0.334c0.153,0.204,0.574,1.866,0.925,3.773c0.495,2.693,0.526,3.5,0.211,3.674
		c-0.204,0.153-3.122,0.688-6.468,1.419l-6.059,1.113l-0.791-3.683c-0.855-4.019-0.713-4.509,0.745-4.776
		c0.786-0.145,1.198,2.1-3.597-20.218c-2.148-9.813-3.979-18.523-4.124-19.309l-0.268-1.459l-3.703,0.68
		c-3.702,0.681-3.702,0.681-3.58,1.354c0.063,0.336-0.079,0.826-0.242,1.204c-0.255,0.511-0.479,0.552-3.907,0.833
		c-2.061,0.146-3.918,0.14-3.918,0.14c-0.265-0.183-0.888-11.784-0.715-12.743c0.212-0.735-0.012-0.694,4.222-1.008
		C495.59,772.765,495.457,772.673,495.592,774.04z"/>
	<path d="M481.988,775.918l0.249,3.87l-1.709,0.11l0.233,7.187c0.533,11.854,1.489,33.855,1.811,38.866l0.307,4.781l1.829-0.003
		l0.354,3.749c0.327,3.295,0.25,3.871-0.07,4.233c-0.547,0.379-11.583,1.202-12.288,0.903c-0.242-0.212-0.422-1.229-0.499-4.196
		l-0.247-3.871l1.244-0.194c0.797-0.052,1.238-0.309,1.224-0.536c-0.016-0.228-1.168-0.382-4.484-0.397
		c-7.55-0.087-13.217-1.095-18.622-3.377c-12.213-5.046-16.664-15.62-10.917-25.82c4.306-7.708,15.396-14.821,27.894-17.795
		c4.168-0.954,3.948-0.826,3.874-1.964c-0.051-0.797-0.172-0.903-0.627-0.874c-0.334,0.135-0.789,0.164-1.138,0.073
		c-0.577-0.078-0.706-0.299-0.948-4.056c-0.182-2.846-0.134-3.877,0.086-4.007c0.783-0.278,11.25-1.064,11.72-0.866
		C481.618,771.94,481.776,772.616,481.988,775.918z M446.374,810.556c0.402,6.262,9.156,10.845,21.774,11.52
		c1.487,0.019,3.43,0.009,4.34-0.05l1.709-0.109l-0.337-5.237c-0.189-2.96-0.516-9.799-0.752-15.271
		c-0.245-5.586-0.537-10.14-0.544-10.253c-0.136-0.334-4.29,0.847-7.974,2.227C453.305,797.422,445.979,804.408,446.374,810.556z"/>
	<path d="M395.111,785.505l0.889,0.949l1.679-1.12l2.257,3.246c1.233,1.697,2.258,3.246,2.239,3.358
		c-0.071,0.45-9.845,7.447-10.295,7.376c-0.226-0.036-1.494-1.508-2.727-3.205l-2.274-3.133l2.125-1.742l-0.682-0.801
		c-0.965-1.192-1.588-1.638-2.828-1.834c-0.675-0.108-1.145-0.066-1.311,0.254c-1.633,2.281-1.257,7.192,1.011,11.826
		c0.456,0.765,1.599,3.025,2.701,4.817c2.435,4.313,3.352,6.538,3.635,9.124c1.032,7.325-4.696,13.578-13.26,14.413
		c-2.718,0.378-6.791-0.153-9.631-1.181c-4.381-1.504-9.882-4.688-12.17-7.014c-1.001-0.968-0.889-0.949-2.028-0.322
		c-0.505,0.267-1.086,0.29-1.181,0.16c-0.622-0.445-3.855-6.271-3.802-6.61c0.089-0.563,10.674-6.854,11.238-6.765
		c0.45,0.072,4.211,6.213,4.123,6.776c-0.036,0.226-0.428,0.51-0.801,0.682c-0.487,0.153-0.878,0.438-0.915,0.663
		c-0.071,0.451,3.415,2.506,6.106,3.741c4.873,2.044,9.47,2.195,12.211,0.205c1.288-0.836,1.418-0.931,1.667-2.508
		c0.323-2.028-0.098-3.019-3.349-8.732c-2.625-4.575-3.945-7.902-4.665-11.366c-0.414-2.491-0.455-2.96,0.117-6.565
		c0.537-3.38,0.757-4.038,1.57-5.526c1.223-1.885,3.347-3.627,5.631-4.188c2.076-0.71,6.149-0.179,8.053,0.932
		C391.934,782.228,393.652,783.771,395.111,785.505z"/>
	<path d="M352.434,763.169l-0.687,3.709l-1.716-0.191c-1.245-0.192-1.632-0.053-1.715,0.279
		c-0.522,2.104-10.714,57.286-10.548,57.562c0,0,3.043,0.521,6.558,1.043c4.428,0.631,6.67,1.071,6.726,1.319
		c0.36,0.442-0.571,7.499-0.986,7.748c-0.139,0.083-2.767-0.218-5.838-0.628c-3.045-0.522-6.228-0.961-6.919-1.016l-1.273-0.081
		l-0.632,3.487c-0.521,2.574-0.77,3.57-1.019,3.626c-0.525,0.222-7.5-1.042-7.777-1.346c0,0,0.164-1.605,0.522-3.515
		c0.33-1.799,0.604-3.376,0.494-3.403c-0.083-0.139-1.439-0.358-3.017-0.633c-2.739-0.329-5.424-0.878-5.479-1.127
		c0,0,0.192-1.716,0.576-3.735c0.439-2.713,0.687-3.709,0.963-3.876c0.139-0.083,2.103,0.054,4.373,0.382
		c2.158,0.302,3.984,0.521,4.122,0.438s1.402-6.116,2.776-13.533c4.698-25.516,7.776-41.678,7.912-43.172l0.274-1.577l-1.106-0.274
		c-0.997-0.248-1.107-0.275-0.971-1.3c0.218-2.767,1.071-6.669,1.457-6.808c0.36-0.028,10.323,1.508,12.426,2.031
		c0.554,0.137,1.08,0.386,1.163,0.523C353.148,759.351,352.847,761.039,352.434,763.169z"/>
	<path d="M309.985,742.541c0.35,0.372,0.192,0.801-1.165,3.826c-0.855,1.995-1.554,3.562-1.7,3.629
		c-0.147,0.068-0.613,0.018-1.042-0.14l-0.857-0.315l-1.801,4.564c-1.693,4.603-4.05,12.002-3.809,12.334
		c0.068,0.146,19.785,8.009,19.931,7.941c0.146-0.068,0.343-0.604,0.647-1.099l0.647-1.099l-1.741-0.885
		c-1.031-0.501-1.956-0.963-2.13-1.148c-0.243-0.332,2.949-6.694,3.536-6.965c0.438-0.203,1.577,0.337,4.953,2.065
		c2.383,1.12,5.01,2.573,5.786,3.103l1.382,0.872l-1.271,3.786c-1.261,3.427-1.34,3.641-1.954,3.657
		c-0.254,0.029-0.682-0.129-0.896-0.207c-0.175-0.187-0.89,0.767-2.264,3.178c-8.625,15.182-17.579,24.65-24.632,26.31
		c-2.507,0.536-4.27,0.374-6.585-0.6c-9.253-4.256-9.672-22.278-1.041-49.37c1.006-3.397,2.2-6.97,2.661-7.895l0.67-1.82
		l-2.598-1.198l1.182-3.212c0.523-1.753,1.3-3.533,1.525-3.814c0.637-0.738-0.006-0.975,7.652,2.329
		C307.601,741.422,309.81,742.355,309.985,742.541z M297.295,795.855c0.909,2.157,1.551,2.394,4.041,1.243
		c2.383-1.189,5.914-4.51,9.106-8.563c2.783-3.595,4.673-6.424,4.537-6.717c-0.066-0.146-3.093-1.503-6.839-2.882
		c-3.6-1.446-7.522-3.011-8.593-3.405l-1.995-0.855l-0.141,1.043C295.833,785.957,295.818,792.272,297.295,795.855z"/>
	<path d="M285.437,740.068c-0.888,1.725-1.825,3.295-1.981,3.6c-0.206,0.15-0.716,0.145-1.122-0.064
		c-0.608-0.313-0.864-0.316-1.072,0.089c-0.156,0.305-3.333,5.727-6.98,12.061c-3.647,6.335-6.875,11.858-7.188,12.467
		c-0.522,1.014-0.522,1.014,0.631,2.763c2.41,3.294,3.578,8.002,3.56,13.767c0.015,3.215-0.986,10.142-2.053,13.956
		c-0.585,2.136-0.585,2.136,0.124,2.502c0.507,0.261,0.707,0.62,0.652,0.977c-0.325,1.629-2.122,6.863-2.328,7.014
		c-0.562,0.095-10.018-2.721-10.676-3.188c-0.455-0.363-0.4-0.72,0.503-3.719c1.121-4.171,1.121-4.171,2.19-4.005l0.916,0.215
		l0.695-2.594c2.245-8.597,2.037-16.916-0.576-20.313c-1.807-2.471-4.813-2.863-9.528-1.186c-3.585,1.234-6.566,3.035-10.48,6.152
		c-3.503,2.816-3.813,3.169-3.208,3.738c0.252,0.258,0.502,0.771,0.601,1.078c0.146,0.461-0.164,0.814-2.994,2.821
		c-1.699,1.307-3.241,2.31-3.444,2.204c-0.507-0.261-7.179-9.982-7.172-10.493c0.055-0.356,5.564-4.577,6.228-4.62
		c0.154-0.049,0.61,0.313,0.858,0.827l0.553,0.669l1.34-1.106c2.371-2.114,6.796-5.226,9.62-6.723
		c4.932-2.851,9.846-4.17,13.977-3.968c1.122,0.064,1.988,0.126,1.988,0.126c0.153-0.05,13.591-23.156,14.375-24.678
		c0.626-1.217,0.678-1.318-0.029-1.939l-0.655-0.722l1.825-3.295c0.939-1.826,1.877-3.396,2.031-3.445
		c0.205-0.151,1.93,0.737,7.201,3.707C287.516,736.776,287.37,736.315,285.437,740.068z"/>
	<path d="M246.777,712.024c3.635,2.769,6.611,5.084,6.641,5.243c0.153,0.381-37.474,55.498-37.92,55.746
		c-0.605,0.277-23.032-15.229-23.15-15.863c0.005-0.41,0.943-1.98,3.264-5.369l3.318-4.641l6.493,4.449l-2.098,3.264l10.069,6.9
		l18.219-26.791l-4.642-3.318c-2.476-1.835-4.576-3.412-4.576-3.412c-0.093-0.064,0.938-1.57,2.322-3.388l2.351-3.229l9.38,6.29
		l2.997-4.171c1.611-2.353,2.872-4.394,2.841-4.552c-0.028-0.159-1.941-1.607-4.135-3.249l-4.106-3.089l-1.378,1.405
		c-0.77,0.719-1.538,1.437-1.761,1.561c-0.411-0.006-3.759-2.991-5.507-4.88c-0.529-0.64-0.465-0.734,3.735-5.047
		c3.461-3.437,4.323-4.091,5.012-3.48c0.188,0.129,1.535,1.19,3.165,2.444C238.782,706.133,243.076,709.352,246.777,712.024z"/>
	<path d="M221.8,706.604l-2.552,2.922l-1.289-1.126l-4.9,5.263c-7.977,8.785-22.806,25.067-26.108,28.848l-3.153,3.607l1.3,1.287
		l-2.39,2.91c-2.091,2.566-2.552,2.922-3.036,2.954c-0.654-0.117-9.063-7.312-9.354-8.02c-0.022-0.322,0.568-1.171,2.605-3.329
		l2.552-2.921l1.02,0.739c0.603,0.525,1.096,0.654,1.246,0.482c0.151-0.172-0.559-1.095-2.901-3.443
		c-5.294-5.383-8.604-10.091-10.83-15.52c-5.108-12.187-0.813-22.825,10.453-26.012c8.487-2.432,21.367,0.337,32.33,7.035
		c3.629,2.262,3.382,2.197,4.132,1.338c0.525-0.602,0.515-0.762,0.171-1.063c-0.332-0.14-0.676-0.439-0.859-0.751
		c-0.354-0.461-0.29-0.708,2.186-3.543c1.876-2.147,2.638-2.846,2.886-2.781c0.751,0.354,8.73,7.172,8.924,7.645
		C224.341,703.521,223.977,704.113,221.8,706.604z M172.123,706.077c-4.128,4.725-1.147,14.146,7.328,23.517
		c1.041,1.063,2.427,2.424,3.114,3.024l1.289,1.126l3.453-3.952c1.952-2.233,6.54-7.313,10.228-11.362
		c3.764-4.135,6.767-7.572,6.842-7.657c0.139-0.333-3.641-2.423-7.226-4.04C186.295,701.644,176.175,701.438,172.123,706.077z"/>
	<path d="M156.913,621.479c0.088,0.503-0.279,0.773-3.074,2.558c-1.811,1.196-3.255,2.122-3.415,2.099
		c-0.159-0.023-0.522-0.323-0.792-0.69l-0.543-0.733l-4.013,2.825c-3.944,2.916-9.978,7.804-9.957,8.215
		c-0.024,0.159,12.133,17.56,12.292,17.583c0.16,0.024,0.619-0.314,1.145-0.562l1.146-0.563l-0.971-1.695
		c-0.586-0.985-1.105-1.879-1.149-2.13c-0.02-0.411,6.142-3.975,6.78-3.879c0.479,0.072,1.134,1.149,3.005,4.447
		c1.376,2.245,2.773,4.901,3.132,5.771l0.675,1.488l-3.143,2.466c-2.935,2.171-3.119,2.307-3.642,1.983
		c-0.227-0.116-0.499-0.482-0.634-0.667c-0.044-0.251-1.166,0.152-3.638,1.413c-15.547,7.949-28.23,10.943-35.036,8.456
		c-2.39-0.929-3.773-2.034-5.173-4.119c-5.396-8.639,4.154-23.931,26.25-41.828c2.707-2.286,5.666-4.616,6.56-5.135l1.56-1.153
		l-1.513-2.429l2.752-2.035c1.399-1.177,3.026-2.238,3.37-2.35c0.938-0.269,0.531-0.818,5.115,6.149
		C155.536,619.234,156.869,621.229,156.913,621.479z M117.026,659.062c-0.427,2.303-0.02,2.853,2.692,3.259
		c2.644,0.314,7.419-0.521,12.313-2.152c4.3-1.478,7.434-2.803,7.482-3.121c0.024-0.159-1.76-2.955-4.135-6.166
		c-2.214-3.186-4.631-6.648-5.31-7.565l-1.197-1.811l-0.689,0.794C121.239,649.986,117.758,655.257,117.026,659.062z"/>
	<path d="M139.444,612.96c-3.424,2.294-3.524,2.349-4.299,0.953l-0.388-0.698l-2.836,1.706c-1.541,0.986-4.875,2.97-7.514,4.564
		c-9.707,5.784-29.021,17.296-31.158,18.614c-3.037,1.817-3.037,1.817-5.762-2.149c-2.892-4.267-7.9-13.752-8.964-17.075
		c-2.482-7.757-2.471-13.375,0.278-17.12c0.919-1.164,1.461-1.596,3.157-2.537c1.796-0.997,2.25-1.119,4.388-1.263
		c6.881-0.299,16.61,4.998,26.416,14.428c1.285,1.374,2.503,2.394,2.658,2.438c0.156,0.045,3.447-1.784,7.38-4.1l7.17-4.243
		l-0.609-1.097c-0.721-1.297-0.82-1.241,3.157-3.712l2.981-1.917l0.431,0.543c0.533,0.487,6.161,8.976,6.604,9.773
		c0.111,0.199,0.222,0.398,0.078,0.609C142.513,610.733,141.127,611.763,139.444,612.96z M91.298,607.34
		c-2.393-1.02-5.007-1.263-5.64-0.521c-0.687,0.643-0.774,3.302-0.322,5.528c0.888,3.945,3.901,11.015,6.194,14.438l1.253,1.784
		l5.528-3.202c5.873-3.522,9.652-5.883,9.542-6.082c0,0-1.064-0.976-2.184-2.05C100.829,612.748,95.453,608.947,91.298,607.34z"/>
	<path d="M118.341,549.596c-0.033,0.509-0.454,0.686-3.592,1.756c-2.043,0.734-3.664,1.291-3.814,1.23
		c-0.149-0.062-0.431-0.438-0.608-0.858l-0.354-0.842l-4.567,1.794c-4.522,1.899-11.542,5.218-11.621,5.622
		c-0.06,0.149,7.629,19.935,7.779,19.995c0.149,0.062,0.675-0.16,1.245-0.275l1.245-0.275l-0.54-1.877
		c-0.337-1.096-0.629-2.086-0.613-2.341c0.079-0.404,6.91-2.405,7.506-2.162c0.449,0.184,0.829,1.384,1.865,5.032
		c0.806,2.508,1.533,5.418,1.676,6.349l0.303,1.604l-3.637,1.651c-3.366,1.413-3.577,1.502-4.008,1.064
		c-0.193-0.167-0.37-0.587-0.458-0.798c0.017-0.255-1.167-0.129-3.869,0.511c-16.985,4.04-30.018,3.944-36.04-0.085
		c-2.102-1.468-3.184-2.869-4.051-5.228c-3.194-9.67,9.706-22.263,35.41-34.418c3.172-1.579,6.599-3.142,7.59-3.434l1.788-0.751
		l-0.894-2.718l3.156-1.325c1.638-0.812,3.47-1.458,3.831-1.484c0.974-0.038,0.708-0.669,3.512,7.186
		C117.537,547.088,118.359,549.341,118.341,549.596z M70.688,576.658c-0.96,2.135-0.694,2.766,1.844,3.803
		c2.495,0.933,7.332,1.253,12.472,0.826c4.527-0.416,7.886-0.961,8.009-1.259c0.062-0.15-1.01-3.288-2.555-6.97
		c-1.397-3.62-2.926-7.557-3.368-8.608l-0.733-2.042l-0.858,0.607C76.932,568.84,72.301,573.135,70.688,576.658z"/>
	<path d="M82.1,546.345c-0.143-0.077-0.523-0.559-0.688-1.104l-0.292-0.984l-1.749,0.521c-2.296,0.685-21.497,7.356-23.979,8.215
		c-1.903,0.805-2.012,0.837-1.893,1.636l0.119,0.798l-3.543,1.293c-2.043,0.729-3.794,1.249-3.936,1.172
		c-0.109,0.033-0.979-2.088-1.87-4.68c-0.859-2.481-1.717-4.964-1.956-5.369c-0.163-0.546-0.326-1.093-0.25-1.234
		c0.198-0.535,6.737-2.96,7.381-2.794c0.142,0.076,0.523,0.558,0.686,1.104l0.293,0.983l1.75-0.521
		c2.514-0.749,2.668-1.033,0.835-2.392c-2.149-1.621-4.973-4.708-6.521-7.104c-1.068-1.586-1.503-2.647-2.317-5.38
		c-1.336-4.482-1.411-4.341,2.895-4.672c1.736-0.159,3.507-0.211,3.726-0.275c0.502,0.088,0.71,0.384,1.231,2.133
		c0.846,2.842,1.565,4.057,3.724,6.508c1.428,1.598,2.487,2.354,4.79,3.692c1.67,0.812,3.734,1.744,4.738,1.921l1.792,0.419
		l3.871-1.392c2.043-0.729,4.526-1.587,5.401-1.847l1.497-0.565l-0.725-3.235l3.543-1.294c2.154-0.761,3.576-1.184,3.826-1.141
		c0.175,0.188,1.153,2.275,2.155,4.834c0.967,2.449,2.033,5.228,2.403,6.069c0.435,1.061,0.489,1.641,0.335,1.924
		C88.955,544.184,82.635,546.542,82.1,546.345z"/>
	<path d="M96.515,500.936l-3.628,1.027l-0.59-1.623c-0.379-1.201-0.675-1.486-1.01-1.414c-2.118,0.463-56.108,15.779-56.282,16.051
		c0,0,0.881,2.961,1.972,6.342c1.397,4.249,1.997,6.454,1.797,6.614c-0.236,0.519-6.975,2.811-7.383,2.55
		c-0.136-0.087-1.03-2.577-2.024-5.514c-0.88-2.96-1.898-6.008-2.155-6.652l-0.492-1.177l-3.406,0.979
		c-2.539,0.673-3.542,0.892-3.702,0.693c-0.433-0.373-2.39-7.185-2.24-7.568c0,0,1.511-0.563,3.381-1.09
		c1.76-0.502,3.295-0.954,3.271-1.065c0.086-0.136-0.317-1.449-0.77-2.985c-0.92-2.602-1.616-5.252-1.418-5.411
		c0,0,1.624-0.59,3.605-1.14c2.626-0.809,3.628-1.027,3.9-0.854c0.136,0.087,0.884,1.909,1.596,4.089
		c0.686,2.068,1.299,3.804,1.435,3.89c0.136,0.088,6.105-1.452,13.362-3.507c24.958-7.096,40.811-11.498,42.211-12.038l1.536-0.453
		l-0.243-1.114c-0.219-1.003-0.244-1.114,0.735-1.445c2.576-1.031,6.454-1.996,6.749-1.71c0.186,0.31,3.222,9.922,3.686,12.039
		c0.121,0.558,0.132,1.14,0.044,1.274C100.256,499.884,98.607,500.36,96.515,500.936z"/>
</g>
</svg>
